<svg width="135" height="58" viewBox="0 0 135 58" fill="none" xmlns="http://www.w3.org/2000/svg">
<g filter="url(#filter0_dd_1720_465614)">
<path d="M5 5.8C5 3.14903 7.14903 1 9.8 1H125.2C127.851 1 130 3.14903 130 5.8V44.2C130 46.851 127.851 49 125.2 49H9.80001C7.14904 49 5 46.851 5 44.2V5.8Z" fill="#F8F9FA"/>
<rect width="67" height="30" transform="translate(22 10)" fill="white" fill-opacity="0.01"/>
<path d="M32.0293 30.9746V32H24.6562V30.9746H32.0293ZM25.0078 17.7812V32H23.8066V17.7812H25.0078ZM33.4355 26.8828V26.5605C33.4355 25.7923 33.5462 25.0827 33.7676 24.4316C33.9889 23.7806 34.3047 23.2174 34.7148 22.7422C35.1315 22.2669 35.6296 21.8991 36.209 21.6387C36.7884 21.3717 37.4329 21.2383 38.1426 21.2383C38.8587 21.2383 39.5065 21.3717 40.0859 21.6387C40.6654 21.8991 41.1634 22.2669 41.5801 22.7422C41.9967 23.2174 42.3158 23.7806 42.5371 24.4316C42.7585 25.0827 42.8691 25.7923 42.8691 26.5605V26.8828C42.8691 27.651 42.7585 28.3607 42.5371 29.0117C42.3158 29.6562 41.9967 30.2161 41.5801 30.6914C41.1699 31.1667 40.6751 31.5378 40.0957 31.8047C39.5163 32.0651 38.8717 32.1953 38.1621 32.1953C37.446 32.1953 36.7982 32.0651 36.2188 31.8047C35.6393 31.5378 35.1413 31.1667 34.7246 30.6914C34.3079 30.2161 33.9889 29.6562 33.7676 29.0117C33.5462 28.3607 33.4355 27.651 33.4355 26.8828ZM34.5977 26.5605V26.8828C34.5977 27.4622 34.6758 28.0124 34.832 28.5332C34.9883 29.0475 35.2161 29.5065 35.5156 29.9102C35.8151 30.3073 36.1862 30.6198 36.6289 30.8477C37.0716 31.0755 37.5827 31.1895 38.1621 31.1895C38.735 31.1895 39.2396 31.0755 39.6758 30.8477C40.1185 30.6198 40.4896 30.3073 40.7891 29.9102C41.0885 29.5065 41.3132 29.0475 41.4629 28.5332C41.6191 28.0124 41.6973 27.4622 41.6973 26.8828V26.5605C41.6973 25.9876 41.6191 25.444 41.4629 24.9297C41.3132 24.4154 41.0853 23.9564 40.7793 23.5527C40.4798 23.1491 40.1087 22.8301 39.666 22.5957C39.2233 22.3613 38.7155 22.2441 38.1426 22.2441C37.5697 22.2441 37.0618 22.3613 36.6191 22.5957C36.1829 22.8301 35.8118 23.1491 35.5059 23.5527C35.2064 23.9564 34.9785 24.4154 34.8223 24.9297C34.6725 25.444 34.5977 25.9876 34.5977 26.5605ZM52.2441 21.4336H53.3281V31.8145C53.3281 32.7324 53.1523 33.5202 52.8008 34.1777C52.4557 34.8353 51.9642 35.3398 51.3262 35.6914C50.6947 36.043 49.9492 36.2188 49.0898 36.2188C48.6536 36.2188 48.2044 36.1504 47.7422 36.0137C47.2865 35.8835 46.8535 35.6816 46.4434 35.4082C46.0397 35.1413 45.6947 34.8092 45.4082 34.4121L46.0625 33.6992C46.4922 34.2201 46.9512 34.6009 47.4395 34.8418C47.9277 35.0892 48.4551 35.2129 49.0215 35.2129C49.6921 35.2129 50.2585 35.0794 50.7207 34.8125C51.1895 34.5456 51.5443 34.1615 51.7852 33.6602C52.0326 33.1589 52.1562 32.5566 52.1562 31.8535V23.7578L52.2441 21.4336ZM44.8223 26.8242V26.6191C44.8223 25.7988 44.9134 25.0599 45.0957 24.4023C45.2845 23.7383 45.5547 23.1719 45.9062 22.7031C46.2578 22.2279 46.6842 21.8665 47.1855 21.6191C47.6934 21.3652 48.2663 21.2383 48.9043 21.2383C49.5163 21.2383 50.0599 21.3392 50.5352 21.541C51.0104 21.7428 51.4206 22.0326 51.7656 22.4102C52.1107 22.7878 52.3874 23.237 52.5957 23.7578C52.8105 24.2786 52.9668 24.8581 53.0645 25.4961V28.1035C52.9863 28.7025 52.8431 29.2526 52.6348 29.7539C52.4264 30.2487 52.1497 30.6816 51.8047 31.0527C51.4596 31.4173 51.043 31.7005 50.5547 31.9023C50.0729 32.0977 49.5163 32.1953 48.8848 32.1953C48.2533 32.1953 47.6868 32.0651 47.1855 31.8047C46.6842 31.5443 46.2578 31.1764 45.9062 30.7012C45.5547 30.2194 45.2845 29.6497 45.0957 28.9922C44.9134 28.3346 44.8223 27.612 44.8223 26.8242ZM45.9941 26.6191V26.8242C45.9941 27.4427 46.056 28.0156 46.1797 28.543C46.3034 29.0703 46.4922 29.5293 46.7461 29.9199C47 30.3105 47.3223 30.6165 47.7129 30.8379C48.1035 31.0592 48.5625 31.1699 49.0898 31.1699C49.7604 31.1699 50.3236 31.043 50.7793 30.7891C51.235 30.5286 51.5964 30.1868 51.8633 29.7637C52.1302 29.334 52.3255 28.8652 52.4492 28.3574V25.3203C52.3776 24.9753 52.2669 24.6237 52.1172 24.2656C51.974 23.9076 51.7721 23.5788 51.5117 23.2793C51.2578 22.9733 50.9323 22.7292 50.5352 22.5469C50.1445 22.3581 49.6693 22.2637 49.1094 22.2637C48.5755 22.2637 48.11 22.3743 47.7129 22.5957C47.3223 22.8171 47 23.1263 46.7461 23.5234C46.4922 23.9141 46.3034 24.373 46.1797 24.9004C46.056 25.4277 45.9941 26.0007 45.9941 26.6191ZM60.623 26.8828V26.5605C60.623 25.7923 60.7337 25.0827 60.9551 24.4316C61.1764 23.7806 61.4922 23.2174 61.9023 22.7422C62.319 22.2669 62.8171 21.8991 63.3965 21.6387C63.9759 21.3717 64.6204 21.2383 65.3301 21.2383C66.0462 21.2383 66.694 21.3717 67.2734 21.6387C67.8529 21.8991 68.3509 22.2669 68.7676 22.7422C69.1842 23.2174 69.5033 23.7806 69.7246 24.4316C69.946 25.0827 70.0566 25.7923 70.0566 26.5605V26.8828C70.0566 27.651 69.946 28.3607 69.7246 29.0117C69.5033 29.6562 69.1842 30.2161 68.7676 30.6914C68.3574 31.1667 67.8626 31.5378 67.2832 31.8047C66.7038 32.0651 66.0592 32.1953 65.3496 32.1953C64.6335 32.1953 63.9857 32.0651 63.4062 31.8047C62.8268 31.5378 62.3288 31.1667 61.9121 30.6914C61.4954 30.2161 61.1764 29.6562 60.9551 29.0117C60.7337 28.3607 60.623 27.651 60.623 26.8828ZM61.7852 26.5605V26.8828C61.7852 27.4622 61.8633 28.0124 62.0195 28.5332C62.1758 29.0475 62.4036 29.5065 62.7031 29.9102C63.0026 30.3073 63.3737 30.6198 63.8164 30.8477C64.2591 31.0755 64.7702 31.1895 65.3496 31.1895C65.9225 31.1895 66.4271 31.0755 66.8633 30.8477C67.306 30.6198 67.6771 30.3073 67.9766 29.9102C68.276 29.5065 68.5007 29.0475 68.6504 28.5332C68.8066 28.0124 68.8848 27.4622 68.8848 26.8828V26.5605C68.8848 25.9876 68.8066 25.444 68.6504 24.9297C68.5007 24.4154 68.2728 23.9564 67.9668 23.5527C67.6673 23.1491 67.2962 22.8301 66.8535 22.5957C66.4108 22.3613 65.903 22.2441 65.3301 22.2441C64.7572 22.2441 64.2493 22.3613 63.8066 22.5957C63.3704 22.8301 62.9993 23.1491 62.6934 23.5527C62.3939 23.9564 62.166 24.4154 62.0098 24.9297C61.86 25.444 61.7852 25.9876 61.7852 26.5605ZM79.2461 29.5586V21.4336H80.418V32H79.2949L79.2461 29.5586ZM79.4609 27.6055L80.0664 27.5859C80.0664 28.25 79.9883 28.862 79.832 29.4219C79.6758 29.9818 79.4316 30.4701 79.0996 30.8867C78.7676 31.3034 78.3379 31.6257 77.8105 31.8535C77.2832 32.0814 76.6484 32.1953 75.9062 32.1953C75.3919 32.1953 74.9199 32.1237 74.4902 31.9805C74.0671 31.8307 73.7025 31.5964 73.3965 31.2773C73.0905 30.9583 72.8529 30.5449 72.6836 30.0371C72.5208 29.5293 72.4395 28.9141 72.4395 28.1914V21.4336H73.6016V28.2109C73.6016 28.7773 73.6634 29.2493 73.7871 29.627C73.9173 30.0046 74.0931 30.3073 74.3145 30.5352C74.5423 30.763 74.8027 30.9258 75.0957 31.0234C75.3887 31.1211 75.7044 31.1699 76.043 31.1699C76.9023 31.1699 77.5794 31.0039 78.0742 30.6719C78.5755 30.3398 78.9303 29.9036 79.1387 29.3633C79.3535 28.8164 79.4609 28.2305 79.4609 27.6055ZM87.4688 21.4336V22.3906H82.1758V21.4336H87.4688ZM84.1191 18.7188H85.2812V29.4316C85.2812 29.9199 85.3464 30.2878 85.4766 30.5352C85.6068 30.7826 85.776 30.9486 85.9844 31.0332C86.1927 31.1178 86.4173 31.1602 86.6582 31.1602C86.834 31.1602 87.0033 31.1504 87.166 31.1309C87.3288 31.1048 87.4753 31.0788 87.6055 31.0527L87.6543 32.0391C87.5111 32.0846 87.3255 32.1204 87.0977 32.1465C86.8698 32.179 86.6419 32.1953 86.4141 32.1953C85.9648 32.1953 85.5677 32.1139 85.2227 31.9512C84.8776 31.7819 84.6074 31.4954 84.4121 31.0918C84.2168 30.6816 84.1191 30.125 84.1191 29.4219V18.7188Z" fill="black"/>
<rect width="16" height="16" transform="translate(97 17)" fill="white" fill-opacity="0.01"/>
<path fill-rule="evenodd" clip-rule="evenodd" d="M101 20.3562C100.829 20.3562 100.666 20.4239 100.545 20.5445C100.425 20.665 100.357 20.8286 100.357 20.9991V28.9991C100.357 29.1696 100.425 29.3331 100.545 29.4536C100.666 29.5742 100.829 29.6419 101 29.6419H103.286C103.562 29.6419 103.786 29.8658 103.786 30.1419C103.786 30.4181 103.562 30.6419 103.286 30.6419H101C100.564 30.6419 100.146 30.4688 99.8381 30.1607C99.53 29.8526 99.3569 29.4348 99.3569 28.9991V20.9991C99.3569 20.5633 99.53 20.1455 99.8381 19.8374C100.146 19.5293 100.564 19.3562 101 19.3562H103.286C103.562 19.3562 103.786 19.5801 103.786 19.8562C103.786 20.1323 103.562 20.3562 103.286 20.3562H101ZM106.932 21.7884C107.127 21.5931 107.444 21.5931 107.639 21.7884L110.496 24.6455C110.691 24.8408 110.691 25.1573 110.496 25.3526L107.639 28.2098C107.444 28.405 107.127 28.405 106.932 28.2098C106.737 28.0145 106.737 27.6979 106.932 27.5026L108.936 25.4991H103.286C103.009 25.4991 102.786 25.2752 102.786 24.9991C102.786 24.7229 103.009 24.4991 103.286 24.4991H108.936L106.932 22.4955C106.737 22.3002 106.737 21.9836 106.932 21.7884Z" fill="black"/>
</g>
<defs>
<filter id="filter0_dd_1720_465614" x="0" y="0" width="135" height="58" filterUnits="userSpaceOnUse" color-interpolation-filters="sRGB">
<feFlood flood-opacity="0" result="BackgroundImageFix"/>
<feColorMatrix in="SourceAlpha" type="matrix" values="0 0 0 0 0 0 0 0 0 0 0 0 0 0 0 0 0 0 127 0" result="hardAlpha"/>
<feMorphology radius="1" operator="erode" in="SourceAlpha" result="effect1_dropShadow_1720_465614"/>
<feOffset dy="2"/>
<feGaussianBlur stdDeviation="2"/>
<feColorMatrix type="matrix" values="0 0 0 0 0 0 0 0 0 0 0 0 0 0 0 0 0 0 0.06 0"/>
<feBlend mode="normal" in2="BackgroundImageFix" result="effect1_dropShadow_1720_465614"/>
<feColorMatrix in="SourceAlpha" type="matrix" values="0 0 0 0 0 0 0 0 0 0 0 0 0 0 0 0 0 0 127 0" result="hardAlpha"/>
<feMorphology radius="1" operator="erode" in="SourceAlpha" result="effect2_dropShadow_1720_465614"/>
<feOffset dy="4"/>
<feGaussianBlur stdDeviation="3"/>
<feColorMatrix type="matrix" values="0 0 0 0 0 0 0 0 0 0 0 0 0 0 0 0 0 0 0.1 0"/>
<feBlend mode="normal" in2="effect1_dropShadow_1720_465614" result="effect2_dropShadow_1720_465614"/>
<feBlend mode="normal" in="SourceGraphic" in2="effect2_dropShadow_1720_465614" result="shape"/>
</filter>
</defs>
</svg>
