<svg width="60" height="58" viewBox="0 0 60 58" fill="none" xmlns="http://www.w3.org/2000/svg">
<g filter="url(#filter0_dd_1720_465613)">
<path d="M5 5.8C5 3.14903 7.14903 1 9.8 1H50.2C52.851 1 55 3.14903 55 5.8V44.2C55 46.851 52.851 49 50.2 49H9.8C7.14903 49 5 46.851 5 44.2V5.8Z" fill="#F8F9FA"/>
<path d="M34.86 28.5267L34 27.6667V24.3334C34 22.2867 32.9067 20.5734 31 20.1201V19.6667C31 19.1134 30.5534 18.6667 30 18.6667C29.4467 18.6667 29 19.1134 29 19.6667V20.1201C27.0867 20.5734 26 22.2801 26 24.3334V27.6667L25.14 28.5267C24.72 28.9467 25.0134 29.6667 25.6067 29.6667H34.3867C34.9867 29.6667 35.28 28.9467 34.86 28.5267ZM32.6667 28.3334H27.3334V24.3334C27.3334 22.6801 28.34 21.3334 30 21.3334C31.66 21.3334 32.6667 22.6801 32.6667 24.3334V28.3334ZM30 31.6667C30.7334 31.6667 31.3334 31.0667 31.3334 30.3334H28.6667C28.6667 31.0667 29.26 31.6667 30 31.6667Z" fill="black"/>
</g>
<defs>
<filter id="filter0_dd_1720_465613" x="0" y="0" width="60" height="58" filterUnits="userSpaceOnUse" color-interpolation-filters="sRGB">
<feFlood flood-opacity="0" result="BackgroundImageFix"/>
<feColorMatrix in="SourceAlpha" type="matrix" values="0 0 0 0 0 0 0 0 0 0 0 0 0 0 0 0 0 0 127 0" result="hardAlpha"/>
<feMorphology radius="1" operator="erode" in="SourceAlpha" result="effect1_dropShadow_1720_465613"/>
<feOffset dy="2"/>
<feGaussianBlur stdDeviation="2"/>
<feColorMatrix type="matrix" values="0 0 0 0 0 0 0 0 0 0 0 0 0 0 0 0 0 0 0.06 0"/>
<feBlend mode="normal" in2="BackgroundImageFix" result="effect1_dropShadow_1720_465613"/>
<feColorMatrix in="SourceAlpha" type="matrix" values="0 0 0 0 0 0 0 0 0 0 0 0 0 0 0 0 0 0 127 0" result="hardAlpha"/>
<feMorphology radius="1" operator="erode" in="SourceAlpha" result="effect2_dropShadow_1720_465613"/>
<feOffset dy="4"/>
<feGaussianBlur stdDeviation="3"/>
<feColorMatrix type="matrix" values="0 0 0 0 0 0 0 0 0 0 0 0 0 0 0 0 0 0 0.1 0"/>
<feBlend mode="normal" in2="effect1_dropShadow_1720_465613" result="effect2_dropShadow_1720_465613"/>
<feBlend mode="normal" in="SourceGraphic" in2="effect2_dropShadow_1720_465613" result="shape"/>
</filter>
</defs>
</svg>
