<svg width="60" height="58" viewBox="0 0 60 58" fill="none" xmlns="http://www.w3.org/2000/svg">
<g filter="url(#filter0_dd_1720_465615)">
<path d="M5 5.8C5 3.14903 7.14903 1 9.8 1H50.2C52.851 1 55 3.14903 55 5.8V44.2C55 46.851 52.851 49 50.2 49H9.8C7.14903 49 5 46.851 5 44.2V5.8Z" fill="#F8F9FA"/>
<path d="M30.0001 26.7144C30.9468 26.7144 31.7144 25.9468 31.7144 25.0001C31.7144 24.0533 30.9468 23.2858 30.0001 23.2858C29.0533 23.2858 28.2858 24.0533 28.2858 25.0001C28.2858 25.9468 29.0533 26.7144 30.0001 26.7144Z" stroke="black" stroke-linecap="round" stroke-linejoin="round"/>
<path d="M34.2286 26.7144C34.1526 26.8867 34.1299 27.0779 34.1635 27.2633C34.1971 27.4486 34.2855 27.6197 34.4172 27.7544L34.4515 27.7886C34.5578 27.8948 34.6421 28.0208 34.6996 28.1596C34.7571 28.2983 34.7867 28.447 34.7867 28.5972C34.7867 28.7474 34.7571 28.8961 34.6996 29.0349C34.6421 29.1736 34.5578 29.2996 34.4515 29.4058C34.3454 29.512 34.2193 29.5963 34.0806 29.6539C33.9418 29.7114 33.7931 29.741 33.6429 29.741C33.4927 29.741 33.344 29.7114 33.2053 29.6539C33.0665 29.5963 32.9405 29.512 32.8344 29.4058L32.8001 29.3715C32.6654 29.2398 32.4943 29.1514 32.309 29.1178C32.1236 29.0842 31.9324 29.1069 31.7601 29.1829C31.5911 29.2554 31.4469 29.3756 31.3454 29.5289C31.2439 29.6823 31.1894 29.8619 31.1886 30.0458V30.1429C31.1886 30.446 31.0682 30.7367 30.8539 30.951C30.6396 31.1654 30.3489 31.2858 30.0458 31.2858C29.7427 31.2858 29.452 31.1654 29.2377 30.951C29.0233 30.7367 28.9029 30.446 28.9029 30.1429V30.0915C28.8985 29.9024 28.8373 29.7189 28.7272 29.565C28.6172 29.4112 28.4633 29.2939 28.2858 29.2286C28.1134 29.1526 27.9222 29.1299 27.7369 29.1635C27.5515 29.1971 27.3805 29.2855 27.2458 29.4172L27.2115 29.4515C27.1054 29.5578 26.9793 29.6421 26.8406 29.6996C26.7018 29.7571 26.5531 29.7867 26.4029 29.7867C26.2527 29.7867 26.104 29.7571 25.9653 29.6996C25.8265 29.6421 25.7005 29.5578 25.5944 29.4515C25.4881 29.3454 25.4038 29.2193 25.3463 29.0806C25.2888 28.9418 25.2592 28.7931 25.2592 28.6429C25.2592 28.4927 25.2888 28.344 25.3463 28.2053C25.4038 28.0665 25.4881 27.9405 25.5944 27.8344L25.6286 27.8001C25.7604 27.6654 25.8487 27.4943 25.8824 27.309C25.916 27.1236 25.8933 26.9324 25.8172 26.7601C25.7448 26.5911 25.6245 26.4469 25.4712 26.3454C25.3179 26.2439 25.1382 26.1894 24.9544 26.1886H24.8572C24.5541 26.1886 24.2634 26.0682 24.0491 25.8539C23.8348 25.6396 23.7144 25.3489 23.7144 25.0458C23.7144 24.7427 23.8348 24.452 24.0491 24.2377C24.2634 24.0233 24.5541 23.9029 24.8572 23.9029H24.9086C25.0978 23.8985 25.2812 23.8373 25.4351 23.7272C25.589 23.6172 25.7062 23.4633 25.7715 23.2858C25.8476 23.1134 25.8703 22.9222 25.8366 22.7369C25.803 22.5515 25.7147 22.3805 25.5829 22.2458L25.5486 22.2115C25.4424 22.1054 25.3581 21.9793 25.3006 21.8406C25.2431 21.7018 25.2135 21.5531 25.2135 21.4029C25.2135 21.2527 25.2431 21.104 25.3006 20.9653C25.3581 20.8265 25.4424 20.7005 25.5486 20.5944C25.6548 20.4881 25.7808 20.4038 25.9196 20.3463C26.0583 20.2888 26.207 20.2592 26.3572 20.2592C26.5074 20.2592 26.6561 20.2888 26.7949 20.3463C26.9336 20.4038 27.0596 20.4881 27.1658 20.5944L27.2001 20.6286C27.3347 20.7604 27.5058 20.8487 27.6912 20.8824C27.8765 20.916 28.0677 20.8933 28.2401 20.8172H28.2858C28.4548 20.7448 28.5989 20.6245 28.7005 20.4712C28.802 20.3179 28.8565 20.1382 28.8572 19.9544V19.8572C28.8572 19.5541 28.9776 19.2634 29.1919 19.0491C29.4063 18.8348 29.697 18.7144 30.0001 18.7144C30.3032 18.7144 30.5939 18.8348 30.8082 19.0491C31.0225 19.2634 31.1429 19.5541 31.1429 19.8572V19.9086C31.1437 20.0925 31.1981 20.2722 31.2997 20.4255C31.4012 20.5788 31.5453 20.6991 31.7144 20.7715C31.8867 20.8476 32.0779 20.8703 32.2633 20.8366C32.4486 20.803 32.6197 20.7147 32.7544 20.5829L32.7886 20.5486C32.8948 20.4424 33.0208 20.3581 33.1596 20.3006C33.2983 20.2431 33.447 20.2135 33.5972 20.2135C33.7474 20.2135 33.8961 20.2431 34.0349 20.3006C34.1736 20.3581 34.2996 20.4424 34.4058 20.5486C34.512 20.6548 34.5963 20.7808 34.6539 20.9196C34.7114 21.0583 34.741 21.207 34.741 21.3572C34.741 21.5074 34.7114 21.6561 34.6539 21.7949C34.5963 21.9336 34.512 22.0596 34.4058 22.1658L34.3715 22.2001C34.2398 22.3347 34.1514 22.5058 34.1178 22.6912C34.0842 22.8765 34.1069 23.0677 34.1829 23.2401V23.2858C34.2554 23.4548 34.3756 23.5989 34.5289 23.7005C34.6823 23.802 34.8619 23.8565 35.0458 23.8572H35.1429C35.446 23.8572 35.7367 23.9776 35.951 24.1919C36.1654 24.4063 36.2858 24.697 36.2858 25.0001C36.2858 25.3032 36.1654 25.5939 35.951 25.8082C35.7367 26.0225 35.446 26.1429 35.1429 26.1429H35.0915C34.9076 26.1437 34.728 26.1981 34.5747 26.2997C34.4214 26.4012 34.3011 26.5453 34.2286 26.7144Z" stroke="black" stroke-linecap="round" stroke-linejoin="round"/>
</g>
<defs>
<filter id="filter0_dd_1720_465615" x="0" y="0" width="60" height="58" filterUnits="userSpaceOnUse" color-interpolation-filters="sRGB">
<feFlood flood-opacity="0" result="BackgroundImageFix"/>
<feColorMatrix in="SourceAlpha" type="matrix" values="0 0 0 0 0 0 0 0 0 0 0 0 0 0 0 0 0 0 127 0" result="hardAlpha"/>
<feMorphology radius="1" operator="erode" in="SourceAlpha" result="effect1_dropShadow_1720_465615"/>
<feOffset dy="2"/>
<feGaussianBlur stdDeviation="2"/>
<feColorMatrix type="matrix" values="0 0 0 0 0 0 0 0 0 0 0 0 0 0 0 0 0 0 0.06 0"/>
<feBlend mode="normal" in2="BackgroundImageFix" result="effect1_dropShadow_1720_465615"/>
<feColorMatrix in="SourceAlpha" type="matrix" values="0 0 0 0 0 0 0 0 0 0 0 0 0 0 0 0 0 0 127 0" result="hardAlpha"/>
<feMorphology radius="1" operator="erode" in="SourceAlpha" result="effect2_dropShadow_1720_465615"/>
<feOffset dy="4"/>
<feGaussianBlur stdDeviation="3"/>
<feColorMatrix type="matrix" values="0 0 0 0 0 0 0 0 0 0 0 0 0 0 0 0 0 0 0.1 0"/>
<feBlend mode="normal" in2="effect1_dropShadow_1720_465615" result="effect2_dropShadow_1720_465615"/>
<feBlend mode="normal" in="SourceGraphic" in2="effect2_dropShadow_1720_465615" result="shape"/>
</filter>
</defs>
</svg>
