<svg width="318" height="229" viewBox="0 0 318 229" fill="none" xmlns="http://www.w3.org/2000/svg">
<path d="M236.697 80.801C236.697 80.801 239.591 78.3926 244.133 85.5432C248.677 92.6938 250.548 96.8953 250.548 96.8953C250.548 96.8953 251.707 98.372 252.672 97.2274C253.636 96.0834 254.804 92.9997 256.673 93.3392C258.611 93.6902 259.447 95.7618 259.404 98.938C259.361 102.115 259.518 109.077 259.535 109.707C259.551 110.325 259.987 111.192 260.767 110.52C261.547 109.847 265.822 103.884 268.484 106.115C271.147 108.346 269.597 117.175 269.446 118.143C269.295 119.111 269.517 119.495 269.981 119.682C270.445 119.871 271.696 117.728 272.98 116.083C274.265 114.437 276.037 112.758 277.468 114.176C278.898 115.594 279.954 121.987 274.98 133.069L272.345 138.051L266.762 138.314C254.78 138.141 249.546 134.435 248.897 132.514C248.248 130.594 250.5 129.684 252.513 129.208C254.526 128.733 256.966 128.501 256.998 127.994C257.03 127.487 256.783 127.119 255.857 126.844C254.932 126.568 246.417 124.213 245.573 120.813C244.729 117.412 251.861 116.037 252.793 115.609C253.725 115.18 253.14 114.408 252.597 114.128C252.045 113.844 245.92 110.72 243.078 109.4C240.234 108.08 238.75 106.426 239.267 104.495C239.766 102.633 243.007 102.88 244.437 102.484C245.868 102.088 245.051 100.391 245.051 100.391C245.051 100.391 242.115 96.8738 237.701 89.6401C233.287 82.407 236.759 80.7564 236.759 80.7564L236.697 80.801Z" fill="#E7E8E5"/>
<path d="M273.332 138.971C270.069 133.672 264.115 124.352 259.044 116.324C253.975 108.298 249.391 101.027 246.103 95.7456C244.464 93.107 243.136 90.9703 242.214 89.4857C241.757 88.7521 241.402 88.1798 241.156 87.7846C241.036 87.596 240.943 87.4493 240.877 87.3442C240.813 87.246 240.777 87.1976 240.777 87.1976C240.777 87.1976 240.803 87.2523 240.861 87.3537C240.924 87.4609 241.013 87.6107 241.126 87.803C241.365 88.2024 241.712 88.7805 242.157 89.522C243.054 91.0139 244.367 93.1627 245.999 95.8118C249.262 101.111 253.829 108.393 258.898 116.418C263.97 124.447 269.94 133.755 273.228 139.037" fill="#DADBD8"/>
<path d="M255.21 97.7184C255.198 97.7168 255.162 97.8576 255.109 98.1146C255.053 98.3716 254.985 98.7457 254.903 99.2082C254.743 100.134 254.554 101.418 254.371 102.839C254.195 104.24 254.036 105.508 253.914 106.478C253.857 106.914 253.808 107.283 253.77 107.579C253.734 107.839 253.719 107.984 253.731 107.986C253.743 107.988 253.78 107.848 253.836 107.591C253.89 107.334 253.959 106.959 254.035 106.496C254.186 105.568 254.359 104.283 254.542 102.862C254.728 101.462 254.896 100.196 255.024 99.2276C255.084 98.7909 255.135 98.4225 255.175 98.1262C255.209 97.8655 255.221 97.7205 255.21 97.7184Z" fill="#DADBD8"/>
<path d="M253.232 108.141C253.241 108.093 250.653 107.58 247.453 106.995C244.252 106.411 241.652 105.975 241.643 106.023C241.635 106.071 244.222 106.584 247.423 107.168C250.622 107.753 253.224 108.188 253.232 108.141Z" fill="#DADBD8"/>
<path d="M261.565 120.108C261.564 120.096 261.418 120.106 261.155 120.132C260.858 120.164 260.486 120.204 260.044 120.251C259.107 120.351 257.812 120.483 256.377 120.575C254.943 120.671 253.641 120.711 252.699 120.733C252.255 120.744 251.882 120.753 251.582 120.76C251.319 120.768 251.173 120.777 251.173 120.79C251.172 120.802 251.318 120.815 251.582 120.828C251.846 120.841 252.228 120.853 252.7 120.857C253.644 120.867 254.949 120.846 256.388 120.75C257.827 120.658 259.124 120.506 260.059 120.375C260.527 120.307 260.904 120.249 261.164 120.2C261.424 120.152 261.567 120.12 261.565 120.108Z" fill="#DADBD8"/>
<path d="M265.395 111.083C265.384 111.078 265.319 111.198 265.21 111.421C265.089 111.678 264.94 111.994 264.764 112.367C264.394 113.17 263.895 114.283 263.353 115.517C262.811 116.751 262.328 117.873 261.988 118.688C261.831 119.071 261.7 119.394 261.592 119.658C261.502 119.888 261.457 120.018 261.468 120.023C261.479 120.028 261.544 119.908 261.653 119.685C261.775 119.428 261.923 119.112 262.099 118.739C262.468 117.937 262.968 116.823 263.511 115.589C264.053 114.355 264.535 113.233 264.876 112.418C265.032 112.036 265.164 111.712 265.271 111.449C265.362 111.218 265.406 111.088 265.395 111.083Z" fill="#DADBD8"/>
<path d="M274.073 120.7C274.062 120.695 273.98 120.85 273.841 121.134C273.69 121.45 273.497 121.857 273.265 122.345C272.785 123.371 272.134 124.793 271.424 126.368C270.714 127.943 270.08 129.373 269.63 130.412C269.418 130.911 269.241 131.325 269.104 131.647C268.983 131.94 268.921 132.104 268.932 132.109C268.943 132.114 269.026 131.959 269.165 131.675C269.315 131.359 269.509 130.953 269.741 130.464C270.22 129.439 270.871 128.017 271.581 126.441C272.291 124.866 272.925 123.436 273.376 122.397C273.588 121.899 273.764 121.484 273.902 121.163C274.022 120.87 274.084 120.705 274.073 120.7Z" fill="#DADBD8"/>
<path d="M268.979 131.804C268.978 131.791 268.793 131.798 268.459 131.82C268.094 131.846 267.619 131.879 267.046 131.92C265.852 132.003 264.204 132.111 262.38 132.179C260.557 132.249 258.905 132.268 257.709 132.273C257.134 132.276 256.658 132.279 256.292 132.281C255.958 132.284 255.772 132.292 255.772 132.303C255.772 132.316 255.957 132.331 256.291 132.349C256.625 132.367 257.109 132.385 257.708 132.397C258.905 132.424 260.56 132.425 262.387 132.354C264.213 132.287 265.864 132.159 267.056 132.044C267.652 131.985 268.133 131.932 268.465 131.888C268.798 131.845 268.981 131.816 268.979 131.804Z" fill="#DADBD8"/>
<path d="M282.257 100.843C282.257 100.843 282.196 101.747 282.402 103.433C282.624 105.105 283.154 107.604 284.725 110.387L284.78 110.292H284.775L284.667 110.291L284.72 110.387C288.091 116.462 293.148 125.578 299.202 136.491L299.293 136.654L299.392 136.495C304 129.024 309.207 120.581 314.701 111.674C314.959 111.255 315.216 110.838 315.454 110.452L315.57 110.263L315.35 110.264H315.35L315.455 110.449C316.628 108.405 317.401 106.164 317.762 103.892C317.934 102.756 318.031 101.613 317.991 100.481C317.961 99.9159 317.931 99.3525 317.901 98.7923C317.818 98.2369 317.736 97.6846 317.654 97.1343C316.814 92.7521 314.471 88.9085 311.404 86.2731C309.86 84.963 308.138 83.964 306.368 83.2645L305.702 83.0123L305.371 82.8867L305.031 82.7947C304.577 82.6749 304.128 82.5551 303.681 82.4374C302.77 82.2976 301.878 82.1084 300.983 82.1053C300.092 82.0217 299.217 82.1068 298.358 82.1526C297.93 82.1872 297.512 82.2813 297.095 82.3418C296.887 82.3759 296.679 82.4101 296.473 82.4437C296.269 82.4873 296.07 82.5504 295.87 82.6024C295.471 82.7122 295.075 82.821 294.684 82.9287C294.306 83.0754 293.931 83.2204 293.561 83.3644C293.377 83.438 293.19 83.5026 293.011 83.5835C292.836 83.6723 292.661 83.7612 292.488 83.8494C292.142 84.0271 291.801 84.2031 291.463 84.3765C288.841 85.9268 286.873 87.9516 285.516 89.9559C284.15 91.9675 283.392 93.9503 282.925 95.5904C282.728 96.4233 282.529 97.158 282.469 97.8165C282.379 98.4691 282.291 99.0199 282.296 99.4718C282.28 99.9164 282.269 100.257 282.261 100.495C282.254 100.725 282.257 100.843 282.257 100.843C282.257 100.843 282.271 100.725 282.285 100.495C282.299 100.258 282.319 99.9185 282.344 99.475C282.347 99.0246 282.443 98.4765 282.54 97.8275C282.607 97.1727 282.812 96.4428 283.015 95.6161C283.494 93.9876 284.26 92.0232 285.627 90.0337C286.983 88.0509 288.944 86.0529 291.547 84.5268C291.882 84.356 292.221 84.1837 292.564 84.0092C292.736 83.9225 292.908 83.8347 293.082 83.747C293.259 83.6676 293.445 83.6045 293.627 83.532C293.994 83.3912 294.366 83.2483 294.741 83.1043C295.128 82.9992 295.519 82.893 295.914 82.7853C296.113 82.7348 296.309 82.6728 296.511 82.6303C296.716 82.5977 296.921 82.5646 297.127 82.5315C297.54 82.4731 297.953 82.3806 298.377 82.3475C299.227 82.3055 300.092 82.223 300.973 82.3076C301.857 82.3129 302.739 82.5031 303.639 82.6423C304.08 82.7601 304.524 82.8788 304.972 82.9986L305.307 83.0901L305.634 83.2146L306.291 83.4653C308.039 84.1605 309.738 85.1496 311.262 86.446C314.286 89.0546 316.595 92.8525 317.421 97.1795C317.502 97.7229 317.583 98.2689 317.664 98.817C317.693 99.3709 317.722 99.9269 317.752 100.485C317.791 101.603 317.694 102.732 317.523 103.853C317.166 106.095 316.403 108.308 315.245 110.325L315.138 110.511L315.35 110.51H315.351L315.248 110.321C315.01 110.707 314.753 111.124 314.495 111.543C309.009 120.454 303.808 128.901 299.205 136.376L299.394 136.381C293.306 125.488 288.219 116.388 284.829 110.324L284.775 110.419H284.779H284.888L284.833 110.323C283.257 107.569 282.709 105.087 282.467 103.424C282.348 102.587 282.314 101.939 282.287 101.503C282.279 101.291 282.273 101.127 282.269 101.01C282.264 100.899 282.257 100.843 282.257 100.843Z" fill="#DADBD8"/>
<path d="M288.753 100.636C288.758 100.636 288.765 100.573 288.775 100.45C288.784 100.315 288.796 100.134 288.812 99.9043C288.82 99.7829 288.828 99.6489 288.837 99.5029C288.853 99.3557 288.884 99.1965 288.91 99.0225C288.964 98.6762 289.016 98.2747 289.146 97.838C289.346 96.9515 289.754 95.9036 290.397 94.7932C291.045 93.6876 291.98 92.532 293.253 91.5514C294.522 90.5792 296.123 89.7515 297.972 89.4146C299.809 89.0899 301.883 89.1435 303.86 89.9013C304.363 90.0636 304.836 90.3154 305.322 90.5508C305.783 90.8325 306.269 91.0921 306.697 91.4452C307.154 91.7616 307.552 92.1578 307.97 92.5398C308.348 92.9624 308.745 93.3765 309.07 93.8562C309.739 94.7953 310.324 95.839 310.678 96.9878C311.046 98.1292 311.246 99.3415 311.265 100.576C311.252 101.811 311.059 103.025 310.697 104.169C310.348 105.32 309.769 106.367 309.105 107.309C308.781 107.791 308.386 108.207 308.011 108.633C307.595 109.016 307.198 109.415 306.743 109.734C306.316 110.089 305.832 110.351 305.373 110.635C304.887 110.873 304.415 111.128 303.913 111.293C301.94 112.06 299.865 112.125 298.027 111.809C296.176 111.482 294.57 110.662 293.297 109.697C292.019 108.722 291.079 107.572 290.425 106.469C289.777 105.362 289.364 104.317 289.16 103.431C289.027 102.995 288.974 102.593 288.918 102.248C288.891 102.074 288.859 101.915 288.843 101.768C288.833 101.622 288.824 101.488 288.816 101.367C288.799 101.137 288.785 100.956 288.776 100.822C288.765 100.699 288.758 100.636 288.753 100.636C288.749 100.636 288.748 100.699 288.751 100.822C288.755 100.957 288.76 101.139 288.767 101.37C288.772 101.492 288.777 101.627 288.783 101.775C288.795 101.923 288.823 102.083 288.846 102.258C288.895 102.608 288.942 103.013 289.069 103.455C289.26 104.351 289.664 105.413 290.309 106.54C290.959 107.662 291.903 108.837 293.193 109.836C294.479 110.825 296.108 111.668 297.991 112.011C299.861 112.341 301.974 112.283 303.99 111.506C304.503 111.339 304.985 111.082 305.481 110.839C305.95 110.551 306.445 110.284 306.882 109.923C307.346 109.598 307.753 109.192 308.178 108.801C308.562 108.368 308.966 107.944 309.297 107.452C309.976 106.491 310.569 105.421 310.926 104.246C311.297 103.078 311.495 101.837 311.508 100.575C311.488 99.3147 311.284 98.0756 310.908 96.9095C310.544 95.7365 309.946 94.6708 309.262 93.7128C308.928 93.223 308.523 92.801 308.136 92.3701C307.709 91.9812 307.301 91.5776 306.835 91.255C306.396 90.8966 305.9 90.6317 305.429 90.3464C304.933 90.1067 304.449 89.8519 303.936 89.6874C301.916 88.9201 299.803 88.8734 297.934 89.2134C296.053 89.5655 294.429 90.4168 293.148 91.4126C291.862 92.4179 290.925 93.5972 290.28 94.7228C289.64 95.8537 289.242 96.9173 289.055 97.8149C288.93 98.2569 288.885 98.6631 288.838 99.0125C288.816 99.1875 288.789 99.3483 288.777 99.4965C288.772 99.6447 288.768 99.7793 288.764 99.9012C288.758 100.132 288.753 100.314 288.75 100.449C288.748 100.573 288.749 100.636 288.753 100.636Z" fill="#DADBD8"/>
<path d="M300.296 105.988L306.874 101.323L305.272 98.9906L300.861 102.118L295.155 94.7492L292.956 96.5086L300.296 105.988Z" fill="#DADBD8"/>
<path fill-rule="evenodd" clip-rule="evenodd" d="M118.837 31.9436C124.888 32.1633 129.191 37.9081 127.788 43.8953C126.75 48.3238 122.692 51.4611 118.216 51.295C112.169 51.0706 107.872 45.331 109.271 39.3481C110.306 34.9201 114.362 31.7812 118.837 31.9436ZM116.198 19.6141C114.253 19.8621 112.374 20.3734 110.603 21.116L106.491 17.6129L99.4267 23.0777L101.652 28.0401C100.476 29.5767 99.4898 31.2815 98.7364 33.1213L93.3933 33.6L92.2005 42.5411L97.2241 44.4497C97.4671 46.4272 97.9712 48.3374 98.7023 50.1368L95.2557 54.3177L100.632 61.4967L105.514 59.2349C107.027 60.4299 108.704 61.4316 110.515 62.1972L110.985 67.6279L119.783 68.8418L121.66 63.7349C123.606 63.4879 125.484 62.9755 127.256 62.2325L131.369 65.736L138.433 60.2712L136.207 55.3083C137.383 53.7717 138.367 52.067 139.122 50.2272L144.464 49.7484L145.658 40.8069L140.634 38.8993C140.391 36.9218 139.887 35.011 139.156 33.2117L142.603 29.0312L137.227 21.8517L132.344 24.114C130.832 22.919 129.155 21.9169 127.344 21.1507L126.873 15.7211L118.077 14.5077L116.198 19.6141Z" fill="#F3F2F1"/>
<path fill-rule="evenodd" clip-rule="evenodd" d="M198.021 56.2026C201.949 56.345 204.742 60.0746 203.831 63.9607C203.157 66.8352 200.523 68.8721 197.618 68.7644C193.693 68.6183 190.903 64.893 191.811 61.0089C192.483 58.1349 195.116 56.097 198.021 56.2026ZM196.308 48.1991C195.046 48.3599 193.825 48.692 192.676 49.1739L190.007 46.9L185.421 50.4472L186.865 53.6686C186.102 54.666 185.462 55.7727 184.973 56.9672L181.505 57.2778L180.73 63.0815L183.991 64.3207C184.149 65.6045 184.476 66.8442 184.951 68.0124L182.714 70.7261L186.203 75.3863L189.373 73.9181C190.354 74.6942 191.443 75.3438 192.619 75.8414L192.924 79.3666L198.635 80.1543L199.854 76.8389C201.117 76.6786 202.336 76.3465 203.486 75.864L206.156 78.1384L210.742 74.5907L209.296 71.3693C210.06 70.3719 210.699 69.2652 211.189 68.0707L214.657 67.7601L215.432 61.9564L212.17 60.7178C212.012 59.434 211.686 58.1938 211.21 57.0255L213.448 54.3118L209.959 49.6516L206.789 51.1199C205.807 50.3442 204.718 49.6942 203.543 49.1965L203.238 45.6719L197.527 44.8842L196.308 48.1991Z" fill="#E7E8E5"/>
<path d="M148.392 90.6246C148.392 90.6246 147.544 90.9399 146.328 92.0119C145.139 93.0661 143.597 95.0562 143.127 97.9917C142.906 99.4395 142.945 101.102 143.481 102.756C144.021 104.394 144.968 106.063 146.433 107.347C147.145 108.007 147.983 108.56 148.899 108.988C149.81 109.43 150.81 109.734 151.852 109.865C153.932 110.175 156.176 109.757 158.138 108.685C160.084 107.58 161.637 105.881 162.498 103.93C162.949 102.967 163.234 101.946 163.357 100.928C163.494 99.9129 163.486 98.8966 163.321 97.9318C163.043 95.9853 162.167 94.2769 161.097 92.9336C160.013 91.5847 158.654 90.6582 157.334 90.0701C154.646 88.8951 152.166 89.1479 150.653 89.6009C149.11 90.067 148.392 90.6246 148.392 90.6246C148.422 90.6902 149.183 90.2089 150.709 89.8205C152.207 89.4427 154.61 89.2698 157.169 90.4469C158.427 91.0355 159.712 91.9404 160.73 93.2395C161.733 94.5338 162.551 96.1671 162.799 98.0138C162.95 98.9297 162.951 99.8925 162.815 100.853C162.693 101.815 162.419 102.781 161.988 103.69C161.167 105.531 159.699 107.128 157.863 108.174C156.007 109.186 153.895 109.585 151.926 109.3C150.941 109.18 149.992 108.897 149.128 108.483C148.259 108.083 147.461 107.565 146.782 106.944C145.383 105.739 144.467 104.161 143.933 102.605C143.402 101.035 143.341 99.4473 143.528 98.0532C143.927 95.2259 145.361 93.2595 146.48 92.1785C147.622 91.0791 148.431 90.6855 148.392 90.6246Z" fill="#E7E8E5"/>
<path d="M137.729 82.4399C137.737 82.4425 137.711 82.3253 137.652 82.092C137.586 81.835 137.497 81.4903 137.381 81.0447C137.123 80.0872 136.751 78.7072 136.269 76.9168L136.225 77.024C138.322 75.8705 141.08 74.3539 144.416 72.5198L144.237 72.4883C145.361 73.7905 146.611 75.2372 147.948 76.7854L148.015 76.8632L148.115 76.8385C149.953 76.3844 151.975 76.1348 154.105 76.1942L154.219 76.1973L154.275 76.0954C155.13 74.5388 156.056 72.853 157.02 71.1004L156.783 71.1987C159.597 72.0395 162.582 72.9318 165.717 73.8688L165.555 73.6344C165.445 75.4023 165.325 77.3487 165.201 79.3446L165.192 79.4897L165.315 79.5653C166.915 80.5475 168.55 81.8419 169.995 83.3932L170.098 83.504L170.242 83.462C171.92 82.9759 173.77 82.4409 175.653 81.8955L175.359 81.7704C176.763 84.379 178.276 87.1921 179.827 90.075L179.885 89.7413C178.571 90.92 177.129 92.2149 175.668 93.5266L175.545 93.6375L175.585 93.8009C176.035 95.6559 176.285 97.7469 176.23 99.8616L176.226 100.032L176.373 100.115C177.914 100.985 179.596 101.934 181.294 102.893L181.161 102.564C180.335 105.44 179.448 108.524 178.551 111.649L178.842 111.441C177.067 111.331 175.152 111.212 173.223 111.092L173.049 111.081L172.96 111.232C171.977 112.892 170.705 114.54 169.213 115.981L169.211 115.983L169.21 115.984C169.175 116.114 169.287 115.694 169.131 116.276L169.133 116.282L169.136 116.293L169.142 116.314L169.154 116.357L169.178 116.444L169.227 116.617L169.325 116.963L169.52 117.654L169.908 119.033C170.167 119.95 170.424 120.864 170.681 121.774L170.818 121.439C168.059 122.978 165.337 124.496 162.654 125.993L163.003 126.055C161.747 124.613 160.504 123.186 159.273 121.774L159.16 121.644L158.994 121.686C157.025 122.182 155.013 122.4 153.033 122.351L152.865 122.347L152.783 122.496C151.861 124.189 150.953 125.855 150.057 127.501L150.371 127.369C147.319 126.468 144.337 125.588 141.43 124.73L141.619 125.003C141.733 123.066 141.845 121.163 141.955 119.292L141.964 119.134L141.831 119.053C140.072 117.979 138.497 116.685 137.141 115.242L137.037 115.131L136.894 115.173C135.039 115.717 133.242 116.243 131.487 116.757L131.762 116.873C130.18 113.958 128.687 111.205 127.266 108.585L127.219 108.859C128.697 107.522 130.085 106.268 131.423 105.058L131.516 104.974L131.487 104.851C130.968 102.732 130.778 100.699 130.817 98.7717L130.819 98.655L130.72 98.5999C128.928 97.5972 127.314 96.6943 125.789 95.8414L125.869 96.0401C126.863 92.5155 127.711 89.5122 128.436 86.9414L128.304 87.035C130.549 87.1595 132.391 87.262 133.925 87.3471L133.982 87.3497L134.01 87.3014C135.059 85.5162 136.044 84.3291 136.71 83.5639C137.04 83.2019 137.292 82.9249 137.478 82.7221C137.657 82.5329 137.737 82.442 137.729 82.4399C137.721 82.4383 137.623 82.5229 137.443 82.6874C137.262 82.8613 136.987 83.1257 136.64 83.4993C135.948 84.2461 134.934 85.4206 133.852 87.2047L133.936 87.1595C132.404 87.0544 130.564 86.9283 128.321 86.7743L128.219 86.7675L128.189 86.8684C127.442 89.4328 126.569 92.4283 125.544 95.9439L125.505 96.0753L125.625 96.1426C127.143 97.006 128.752 97.9198 130.537 98.9346L130.44 98.7622C130.389 100.721 130.569 102.791 131.087 104.952L131.15 104.745C129.806 105.948 128.413 107.196 126.928 108.525L126.796 108.642L126.881 108.799C128.292 111.425 129.773 114.184 131.344 117.107L131.435 117.276L131.619 117.223C133.375 116.715 135.174 116.195 137.03 115.658L136.782 115.59C138.164 117.069 139.77 118.396 141.566 119.5L141.442 119.261C141.327 121.13 141.21 123.033 141.093 124.97L141.079 125.184L141.282 125.244C144.188 126.109 147.168 126.995 150.218 127.902L150.428 127.965L150.534 127.77C151.433 126.127 152.344 124.461 153.269 122.77L153.02 122.916C155.048 122.968 157.11 122.747 159.129 122.241L158.851 122.153C160.081 123.566 161.323 124.995 162.578 126.437L162.728 126.61L162.927 126.499C165.611 125.004 168.334 123.486 171.094 121.949L171.294 121.837L171.232 121.614C170.975 120.704 170.718 119.79 170.459 118.872L170.071 117.494L169.876 116.803L169.778 116.457L169.73 116.284L169.705 116.198L169.693 116.154L169.687 116.132L169.684 116.121L169.682 116.116C169.526 116.698 169.64 116.276 169.605 116.406L169.606 116.405L169.609 116.403C171.139 114.925 172.443 113.234 173.45 111.533L173.188 111.672C175.117 111.792 177.032 111.909 178.807 112.019L179.034 112.033L179.098 111.812C179.993 108.685 180.876 105.601 181.7 102.724L181.763 102.504L181.567 102.394C179.867 101.437 178.185 100.49 176.642 99.622L176.785 99.8747C176.838 97.7086 176.578 95.5671 176.113 93.6679L176.03 93.9412C177.488 92.6269 178.928 91.3289 180.238 90.1475L180.398 90.0036L180.296 89.8138C178.737 86.9346 177.217 84.1257 175.807 81.5208L175.709 81.3384L175.513 81.3957C173.63 81.947 171.782 82.4882 170.106 82.9785L170.354 83.0468C168.871 81.4656 167.197 80.1492 165.56 79.1528L165.674 79.3735C165.79 77.3776 165.903 75.4301 166.005 73.6623L166.016 73.4789L165.843 73.4279C162.704 72.5062 159.715 71.628 156.898 70.8004L156.74 70.7541L156.662 70.8986C155.708 72.6575 154.792 74.3481 153.945 75.9099L154.114 75.8111C151.949 75.7643 149.897 76.0313 148.034 76.5063L148.2 76.5589C146.85 75.0218 145.589 73.585 144.454 72.2923L144.376 72.2035L144.275 72.2607C140.961 74.1342 138.221 75.6823 136.137 76.8605L136.073 76.8973L136.093 76.9677C136.611 78.7314 137.01 80.0898 137.288 81.0326C137.424 81.4787 137.528 81.8235 137.607 82.081C137.68 82.3169 137.721 82.4378 137.729 82.4399Z" fill="#E7E8E5"/>
<path d="M115.838 91.9434L123.951 59.1499L90.9395 58.5955L115.838 91.9434Z" fill="#E7E8E5"/>
<path d="M40.462 111.573L51.8013 126.762L112.232 80.1532L100.893 64.9649L40.462 111.573Z" fill="#E7E8E5"/>
<path d="M56.78 175.772L52.5857 185.435C52.5857 185.435 60.8419 193.012 60.2379 194.875L41.5111 187.284L47.437 171.955L56.78 175.772Z" fill="#48C3FE"/>
<path d="M60.238 194.875C60.2592 194.81 60.2695 194.737 60.2695 194.658C60.2716 192.489 52.5857 185.435 52.5857 185.435L56.78 175.772L47.437 171.955L41.5112 187.284L60.238 194.875Z" fill="#0198E0"/>
<path d="M41.5106 187.284L42.1673 185.763L59.8771 193.61C59.8771 193.61 60.5658 194.316 60.2375 194.875L41.5106 187.284Z" fill="#003047"/>
<path d="M23.8023 189.463L18.5533 198.577C18.5533 198.577 25.9062 207.061 25.097 208.842L7.34273 199.132L14.9484 184.588L23.8023 189.463Z" fill="#48C3FE"/>
<path d="M25.0971 208.842C25.139 208.75 25.1592 208.64 25.1592 208.514C25.1649 206.206 18.5534 198.577 18.5534 198.577L21.7322 193.057L12.4978 189.275L7.34287 199.132L25.0971 208.842Z" fill="#0198E0"/>
<path d="M7.34204 199.132L8.16517 197.696L24.8797 207.543C24.8797 207.543 25.4851 208.324 25.0963 208.842L7.34204 199.132Z" fill="#003047"/>
<path d="M46.7114 61.6083L58.2192 62.5195L58.6013 55.9711C58.6013 55.9711 63.2428 55.9023 63.9377 51.2941C64.6327 46.6859 65.3115 35.9734 65.3115 35.9734C60.3722 32.9254 54.1956 32.8335 49.1705 35.7332L48.4244 36.1636L46.7114 61.6083Z" fill="#F8A58D"/>
<path d="M58.6172 55.9055C58.6172 55.9055 55.714 55.7331 52.9328 53.3489C52.9328 53.3489 53.939 56.9733 58.5283 57.2051L58.6172 55.9055Z" fill="#F68260"/>
<path d="M48.3223 41.0225C48.2494 40.9773 45.3312 39.6383 44.994 42.8087C44.6564 45.9786 47.8579 45.6691 47.8729 45.5787C47.8874 45.4883 48.3223 41.0225 48.3223 41.0225Z" fill="#F8A58D"/>
<path d="M47.0476 44.2753C47.0352 44.2637 46.9892 44.3079 46.8925 44.341C46.7989 44.3725 46.6417 44.3846 46.4856 44.3047C46.1692 44.1455 45.9484 43.5832 45.9939 43.0104C46.0166 42.7208 46.1055 42.4528 46.2301 42.2363C46.3506 42.0145 46.515 41.869 46.6841 41.8574C46.8532 41.8369 46.9597 41.9504 46.9887 42.0434C47.0207 42.137 46.9949 42.1985 47.0104 42.2053C47.0187 42.2142 47.0833 42.1596 47.0719 42.0261C47.0657 41.9615 47.0373 41.8831 46.9706 41.8138C46.9018 41.7439 46.7953 41.7003 46.6784 41.7003C46.4365 41.6908 46.196 41.8916 46.0585 42.1291C45.908 42.3666 45.8015 42.6672 45.7762 42.9925C45.7276 43.6331 45.9861 44.2663 46.423 44.4482C46.636 44.5307 46.8263 44.4834 46.9292 44.4193C47.0341 44.3515 47.0579 44.2826 47.0476 44.2753Z" fill="#F68260"/>
<path d="M63.3511 43.2266C63.3154 43.5761 62.9943 43.8336 62.6339 43.8021C62.2746 43.7705 62.0119 43.4621 62.0476 43.1121C62.0838 42.7621 62.4049 42.5046 62.7647 42.5361C63.1246 42.5671 63.3878 42.8761 63.3511 43.2266Z" fill="#003047"/>
<path d="M63.5531 42.343C63.4611 42.4181 63.0211 41.9783 62.3225 41.88C61.6261 41.7723 61.0641 42.0639 61.0005 41.9662C60.9684 41.9226 61.0713 41.7791 61.3174 41.6456C61.5599 41.5127 61.9565 41.4065 62.3908 41.4706C62.8256 41.5353 63.1684 41.7497 63.3556 41.9467C63.5469 42.1449 63.5981 42.3109 63.5531 42.343Z" fill="#003047"/>
<path d="M56.5641 42.4278C56.5279 42.7773 56.2068 43.0348 55.8469 43.0032C55.487 42.9717 55.2244 42.6632 55.2606 42.3133C55.2963 41.9633 55.6173 41.7052 55.9772 41.7373C56.3371 41.7688 56.6002 42.0778 56.5641 42.4278Z" fill="#003047"/>
<path d="M56.6745 41.4955C56.5824 41.5696 56.1409 41.1298 55.4434 41.032C54.7475 40.9243 54.1849 41.216 54.1208 41.1182C54.0893 41.0746 54.1916 40.9311 54.4382 40.7982C54.6807 40.6652 55.0768 40.5591 55.5116 40.6227C55.946 40.6868 56.2893 40.9022 56.477 41.0988C56.6677 41.2969 56.7189 41.4624 56.6745 41.4955Z" fill="#003047"/>
<path d="M58.4797 47.1172C58.4813 47.0768 58.9265 47.0626 59.6421 47.0721C59.8225 47.0784 59.9962 47.0668 60.0433 46.9475C60.1032 46.8224 60.0557 46.6164 59.9988 46.3936C59.8918 45.9312 59.7801 45.4466 59.6627 44.9385C59.202 42.8701 58.8954 41.1795 58.9776 41.1616C59.0604 41.1432 59.4999 42.8054 59.96 44.8738C60.0691 45.3836 60.1741 45.8692 60.2728 46.3337C60.3116 46.5492 60.3959 46.7993 60.2672 47.0579C60.2005 47.1861 60.0557 47.266 59.9373 47.2807C59.8178 47.3001 59.7175 47.2875 59.6286 47.2802C58.9156 47.2176 58.4766 47.1582 58.4797 47.1172Z" fill="#003047"/>
<path d="M56.357 47.3148C56.4717 47.3242 56.3668 48.0946 56.9392 48.7337C57.511 49.3743 58.33 49.4032 58.3212 49.512C58.3254 49.5619 58.1206 49.636 57.7788 49.596C57.4427 49.5603 56.9697 49.3816 56.6191 48.9901C56.2696 48.5986 56.1615 48.1272 56.1791 47.8077C56.1951 47.4814 56.3058 47.3027 56.357 47.3148Z" fill="#003047"/>
<path d="M57.2383 38.7394C57.1431 38.9228 56.4585 38.7315 55.6261 38.7147C54.7937 38.6816 54.0998 38.8303 54.015 38.6422C53.9772 38.5523 54.1179 38.3873 54.4105 38.2391C54.7011 38.0904 55.1478 37.9732 55.6473 37.9879C56.1468 38.0037 56.5852 38.1471 56.8665 38.3132C57.1503 38.4793 57.2806 38.6527 57.2383 38.7394Z" fill="#003047"/>
<path d="M63.581 40.2536C63.4357 40.3971 62.9782 40.1611 62.4011 40.0708C61.8267 39.9599 61.3184 40.0266 61.229 39.8416C61.1907 39.7528 61.29 39.6025 61.5253 39.4806C61.7569 39.3587 62.1266 39.2851 62.5226 39.354C62.9182 39.4233 63.2418 39.6188 63.4202 39.8127C63.6017 40.0072 63.6462 40.1827 63.581 40.2536Z" fill="#003047"/>
<path d="M67.9277 33.3738C68.0554 32.8089 67.9308 32.1646 67.5192 31.7631C67.1076 31.3611 66.3941 31.2812 65.9618 31.6601C66.2819 30.9197 65.7845 29.9417 65.0058 29.7788C64.2716 29.6253 63.5612 30.1035 62.8177 30.2008C62.0923 30.2959 61.3659 30.02 60.7314 29.649C60.0976 29.278 59.5215 28.8082 58.8763 28.4587C57.5299 27.7288 55.8976 27.5627 54.4354 28.0073C52.9737 28.4524 51.6992 29.5013 50.9681 30.8629C50.0188 30.4057 48.8193 30.7568 48.0882 31.5245C47.3576 32.2923 47.0448 33.3927 47.0215 34.4606C47.0055 35.1821 47.1125 35.8968 47.2547 36.6062C47.2459 36.6656 47.2324 36.7229 47.2247 36.7828C46.9207 39.3278 46.7904 42.349 47.8539 42.5182C49.707 42.812 49.7562 39.1928 49.7562 39.1928C52.1594 38.6236 51.7907 35.0313 52.4334 34.5867C53.0756 34.141 54.4375 33.0879 58.8665 36.2489C60.5861 37.4764 63.0535 37.7981 64.4417 37.6804L64.5633 37.673L64.5922 37.6709L64.6336 37.6604C65.0777 37.6084 65.5146 37.4991 65.9303 37.3083C66.4013 37.0918 66.846 36.7712 67.0968 36.3125C67.347 35.8532 67.362 35.2378 67.0358 34.83C67.4504 34.4311 67.7999 33.9392 67.9277 33.3738Z" fill="#003047"/>
<path d="M58.6172 59.9805L58.1038 78.3066L46.8855 53.76L47.1662 51.4872L58.6172 59.9805Z" fill="#E7E8E5"/>
<path d="M51.1748 114.768C51.5864 114.904 74.9438 138.914 74.419 143.227C73.8942 147.539 57.2666 179.479 57.2666 179.479L45.4035 173.533L56.5319 145.533L56.3866 143.796L42.7857 132.469L43.5122 114.252L51.1748 114.768Z" fill="#003047"/>
<path d="M46.1387 119.499C45.8667 119.917 41.8219 157.637 40.7376 159.589C39.6534 161.541 23.4063 193.742 23.4063 193.742L11.3437 188.802L26.0696 153.411L24.3918 119.915L25.3003 110.456L43.5121 114.251L46.1387 119.499Z" fill="#003047"/>
<path d="M40.9491 158.924C40.9584 158.925 40.9852 158.795 41.0282 158.546C41.0726 158.273 41.1305 157.911 41.2034 157.458C41.3493 156.482 41.5519 155.118 41.8017 153.445C42.2851 150.028 42.9464 145.356 43.677 140.194C44.3786 135.025 45.0135 130.348 45.4778 126.929C45.6929 125.251 45.8682 123.883 45.9939 122.905C46.0471 122.449 46.0895 122.085 46.121 121.809C46.1474 121.558 46.1572 121.425 46.1479 121.424C46.1391 121.423 46.1128 121.553 46.0699 121.802C46.0254 122.075 45.967 122.438 45.8941 122.891C45.7483 123.866 45.5456 125.23 45.2958 126.903C44.8124 130.319 44.1511 134.992 43.4205 140.157C42.7189 145.324 42.084 150.001 41.6197 153.42C41.4046 155.098 41.2288 156.465 41.1036 157.443C41.0509 157.9 41.0085 158.264 40.976 158.54C40.9496 158.79 40.9408 158.923 40.9491 158.924Z" fill="#33535F"/>
<path d="M26.3767 152.33C26.3074 152.35 26.6212 153.688 27.0773 155.319C27.5338 156.95 27.9594 158.256 28.0286 158.236C28.0974 158.217 27.783 156.878 27.3275 155.246C26.871 153.616 26.4454 152.31 26.3767 152.33Z" fill="#33535F"/>
<path d="M24.5513 160.87C24.5751 160.888 24.8605 160.556 25.21 159.94C25.5601 159.326 25.9494 158.414 26.1743 157.35C26.3961 156.284 26.4065 155.29 26.3336 154.585C26.2617 153.877 26.1345 153.456 26.1055 153.462C26.0187 153.469 26.3718 155.208 25.9205 157.295C25.4954 159.386 24.4753 160.829 24.5513 160.87Z" fill="#33535F"/>
<path d="M60.4227 141.468C60.3989 141.406 59.4238 141.818 58.4755 142.703C57.5216 143.581 57.0283 144.531 57.0862 144.561C57.1513 144.605 57.7268 143.747 58.6503 142.898C59.5665 142.042 60.4604 141.538 60.4227 141.468Z" fill="#33535F"/>
<path d="M58.5914 140.354C58.5449 140.305 57.9493 140.839 57.4415 141.681C56.9291 142.519 56.7249 143.299 56.7895 143.32C56.8604 143.346 57.1665 142.629 57.6623 141.819C58.153 141.006 58.6468 140.407 58.5914 140.354Z" fill="#33535F"/>
<path d="M56.9788 85.3272L53.9929 100.384L51.5628 121.395C51.5628 121.395 41.5445 119.973 37.2748 118.599C32.3225 117.006 21.5468 115.649 21.5468 115.649L23.3632 117.476C19.5081 116.379 17.0532 112.639 17.0532 112.639C23.6982 106.375 29.3666 93.4889 29.3666 93.4889L34.4197 67.9895C34.4197 67.9895 35.187 64.3924 35.6497 62.7928C36.113 61.1931 43.7859 56.0331 44.849 55.381L45.517 55.0599L45.73 53.0162L46.5206 52.5359L54.8243 60.2025C56.438 61.6955 57.4679 63.7292 57.714 65.9327C57.9736 68.2565 58.2063 71.5888 58.076 75.5248C57.9772 78.5124 56.9788 85.3272 56.9788 85.3272Z" fill="#48C3FE"/>
<path d="M51.2784 59.2447C51.2784 59.2447 55.6655 61.6347 56.4261 63.6637C57.1867 65.6922 54.9251 87.9339 54.9251 87.9339L70.6779 88.2345L70.7275 97.7751C70.7275 97.7751 45.7052 99.7847 44.7311 98.4094C43.4147 96.5507 41.8848 79.1715 41.8848 79.1715L41.3165 66.6665C41.3165 66.6665 42.7674 57.1306 51.2784 59.2447Z" fill="#48C3FE"/>
<path d="M49.5721 101.076C51.0643 101.076 52.4898 100.876 53.9929 100.383L54.2881 98.8517C54.2881 98.8517 51.4237 99.0608 49.1854 99.0608C48.5112 99.0608 47.8943 99.0419 47.429 98.9925C46.9647 98.9431 46.4745 98.909 46.034 98.7666C45.3101 98.6893 44.8479 98.5732 44.731 98.4082C44.3567 97.88 43.9653 96.098 43.5966 93.8173C42.97 90.7084 42.5931 86.8312 42.4023 84.4296C42.3227 83.6823 42.2508 82.9802 42.1872 82.347C41.7037 83.81 41.0109 86.3945 41.225 87.8259C41.4489 89.3152 41.8154 90.7862 41.9002 92.2902C41.9974 94.0217 41.7296 95.8326 42.3718 97.4396C43.2104 99.5375 45.4689 100.772 47.687 100.982C48.3338 101.043 48.9584 101.076 49.5721 101.076Z" fill="#15B3FE"/>
<path d="M46.0342 98.7695C45.7938 98.6918 45.5683 98.5814 45.3698 98.419C44.8869 98.0238 44.6123 97.4269 44.3962 96.8362C44.0937 96.0106 43.8285 94.968 43.5968 93.8203C43.9655 96.101 44.3569 97.883 44.7312 98.4111C44.8481 98.5761 45.3103 98.6923 46.0342 98.7695ZM42.4025 84.4326C42.2939 83.0662 42.2453 82.1771 42.2453 82.1771C42.2267 82.2328 42.207 82.2906 42.1874 82.35C42.251 82.9832 42.3229 83.6853 42.4025 84.4326Z" fill="#15B3FE"/>
<path d="M41.3428 68.0178C41.3382 68.0178 41.3382 68.0946 41.3423 68.2449C41.3485 68.4062 41.3563 68.6269 41.3671 68.9091C41.3961 69.5061 41.4364 70.3643 41.4881 71.4636C41.546 72.5766 41.6153 73.9325 41.697 75.5043C41.7911 77.0787 41.8428 78.8754 42.0326 80.8524C42.2022 82.8304 42.4064 84.9955 42.6499 87.3172C42.9038 89.6384 43.1747 92.1183 43.609 94.7127C43.7326 95.3607 43.8308 96.0144 44.0418 96.6739C44.2584 97.324 44.6349 97.9478 45.1778 98.4034C45.7129 98.8485 46.4223 99.1654 47.1378 99.1149C47.8328 99.1307 48.5287 99.1123 49.2329 99.1039C52.0446 99.0335 54.9509 98.8868 57.927 98.7229C62.3989 98.4717 66.7085 98.1884 70.7358 97.901L70.8516 97.8926L70.8505 97.7743C70.8309 94.3864 70.8117 91.1939 70.7947 88.2495L70.7936 88.1391L70.6861 88.137C64.3957 87.9993 59.1586 87.8853 55.4809 87.8049C53.6573 87.7728 52.2209 87.7471 51.2266 87.7297C50.7458 87.725 50.3725 87.7213 50.1067 87.7187C49.8534 87.7182 49.722 87.7271 49.722 87.7271C49.722 87.7271 49.8529 87.7424 50.1057 87.7544C50.3715 87.7649 50.7448 87.7797 51.2251 87.7991C52.2189 87.8312 53.6547 87.8774 55.4773 87.9363C59.155 88.0398 64.3911 88.1864 70.6804 88.363L70.5718 88.2505C70.5817 91.195 70.592 94.3874 70.6034 97.7759L70.7182 97.6498C66.6919 97.9294 62.3824 98.2089 57.9131 98.4596C54.9385 98.6236 52.0332 98.7718 49.2267 98.8459C48.5261 98.8553 47.8297 98.8742 47.1456 98.8595C46.4719 98.91 45.838 98.6194 45.3354 98.2089C44.8334 97.7891 44.4792 97.211 44.2719 96.593C44.0718 95.9734 43.9673 95.3081 43.8448 94.6696C43.4053 92.0899 43.1266 89.6105 42.864 87.2936C42.6106 84.9745 42.3966 82.8115 42.2151 80.8356C42.0139 78.8612 41.9498 77.0661 41.8413 75.4932C41.743 73.9235 41.6587 72.5693 41.5894 71.4568C41.516 70.3595 41.4592 69.5024 41.4194 68.906C41.3976 68.6243 41.3811 68.4041 41.3687 68.2433C41.3557 68.094 41.3475 68.0173 41.3428 68.0178Z" fill="#003047"/>
<path d="M67.6355 97.6367C67.7069 97.6362 67.754 95.5646 67.741 93.0101C67.7276 90.4546 67.6588 88.3841 67.5875 88.3846C67.5156 88.3846 67.468 90.4561 67.4815 93.0117C67.4949 95.5657 67.5637 97.6367 67.6355 97.6367Z" fill="#003047"/>
<path d="M69.3052 89.8329C69.3358 89.8156 69.1781 89.6375 68.8792 89.7383C68.7412 89.7825 68.5736 89.9391 68.5597 90.1619C68.5416 90.3726 68.6445 90.6196 68.8797 90.7337C69.1176 90.8382 69.3657 90.7578 69.5131 90.6149C69.6713 90.4667 69.6992 90.2518 69.6667 90.1109C69.5964 89.8088 69.389 89.7447 69.3818 89.7751C69.3575 89.8051 69.4805 89.9165 69.4852 90.1335C69.4867 90.2392 69.4511 90.3579 69.3544 90.4336C69.2603 90.5129 69.1036 90.5482 68.9868 90.4935C68.8704 90.441 68.796 90.2959 68.7986 90.1756C68.796 90.0542 68.8678 89.9612 68.9557 89.9076C69.1372 89.7977 69.2892 89.8671 69.3052 89.8329Z" fill="#003047"/>
<path d="M34.3506 70.1768C34.3506 70.1768 26.1544 81.068 25.156 84.0361C24.1576 87.0047 24.929 91.2661 26.598 93.3035C28.2676 95.3414 29.6134 94.5132 29.6134 94.5132L34.3506 70.1768Z" fill="#48C3FE"/>
<path d="M29.9066 93.6383C29.8947 93.7103 30.8145 93.9304 31.9608 94.1301C33.1071 94.3304 34.0466 94.4339 34.0585 94.3619C34.0709 94.2904 33.1511 94.0702 32.0043 93.87C30.8585 93.6703 29.9185 93.5663 29.9066 93.6383Z" fill="#003047"/>
<path d="M28.3305 101.667C28.3134 101.663 28.2348 101.868 28.1076 102.242C27.9835 102.618 27.7953 103.158 27.5523 103.821C27.0689 105.147 26.3238 106.95 25.3507 108.868C24.3751 110.785 23.3648 112.45 22.5975 113.631C22.2149 114.222 21.899 114.697 21.6782 115.023C21.459 115.351 21.3437 115.538 21.3587 115.548C21.3726 115.559 21.5143 115.393 21.7594 115.084C22.0055 114.775 22.3457 114.315 22.749 113.736C23.5582 112.577 24.5995 110.918 25.5819 108.989C26.5601 107.059 27.284 105.231 27.725 103.883C27.9473 103.209 28.1097 102.658 28.2048 102.272C28.302 101.888 28.3475 101.673 28.3305 101.667Z" fill="#003047"/>
<path d="M21.5855 114.635C21.6263 114.635 21.6671 114.63 21.708 114.621C21.9267 114.568 22.0859 114.384 22.225 114.203C22.3403 114.028 22.465 113.837 22.5973 113.633C23.3646 112.452 24.3749 110.786 25.3506 108.87C26.2668 107.064 26.9808 105.36 27.4648 104.06C27.5413 103.814 27.6147 103.568 27.685 103.319L27.7734 102.96C26.4746 105.313 25.1396 107.711 23.1609 109.509C22.4624 110.144 21.6811 110.708 21.1481 111.491C20.6155 112.275 20.3854 113.37 20.8911 114.172C21.0472 114.418 21.3078 114.635 21.5855 114.635Z" fill="#15B3FE"/>
<path d="M22.2251 114.203C22.2313 114.195 22.2375 114.187 22.2437 114.179C24.5549 111.156 26.331 107.711 27.4648 104.06C26.9809 105.36 26.2668 107.064 25.3506 108.87C24.375 110.786 23.3647 112.452 22.5974 113.632C22.465 113.837 22.3404 114.028 22.2251 114.203Z" fill="#003047"/>
<path d="M28.8557 94.4707L29.6065 93.374L33.6611 71.8175L32.8597 74.8387C31.8184 79.1752 30.6287 82.7665 28.8681 86.7383C28.2999 88.018 27.6738 89.3044 27.5068 90.6986C27.3408 92.0928 27.7332 93.652 28.8557 94.4707Z" fill="#15B3FE"/>
<path d="M49.1454 58.2773C49.1914 58.2169 48.4552 57.5805 47.6181 56.7265C46.7773 55.8747 46.1517 55.1274 46.0923 55.1737C46.037 55.2146 46.5798 56.0465 47.4345 56.9131C48.2866 57.7818 49.1056 58.3336 49.1454 58.2773Z" fill="#003047"/>
<path d="M49.9727 60.1225C49.9597 60.1666 50.4458 60.3153 51.1712 60.68C51.8961 61.0416 52.8453 61.6585 53.714 62.5477C54.5785 63.4405 55.1746 64.4133 55.5216 65.1542C55.8721 65.8957 56.0117 66.3913 56.0557 66.3787C56.0727 66.3739 56.0521 66.2468 55.9993 66.0182C55.9502 65.7896 55.8463 65.4659 55.6891 65.078C55.3784 64.3013 54.7884 63.2813 53.898 62.3622C53.0051 61.4473 52.0083 60.8361 51.2482 60.5108C50.8687 60.3463 50.5517 60.2365 50.3268 60.1845C50.1024 60.1277 49.9778 60.1051 49.9727 60.1225Z" fill="#003047"/>
<path d="M27.9619 96.6385C27.9697 96.6427 28.0136 96.5707 28.0907 96.4293C28.1786 96.2617 28.2871 96.0557 28.419 95.8045C28.7121 95.2217 29.1098 94.4314 29.5984 93.4592L29.603 93.4497L29.6056 93.4381C30.118 91.0508 30.8429 87.5698 31.6314 83.6978C32.3594 80.0492 33.0176 76.7474 33.5036 74.3117C33.7254 73.1361 33.9074 72.1713 34.0413 71.4613C34.0951 71.1476 34.139 70.8906 34.1752 70.6835C34.2026 70.5049 34.213 70.4103 34.2037 70.4087C34.1954 70.4066 34.168 70.4975 34.1235 70.6725C34.0754 70.8769 34.0155 71.1308 33.9421 71.4403C33.7885 72.1466 33.5786 73.1056 33.3237 74.2738C32.8185 76.7054 32.134 80.0014 31.3775 83.6447C30.589 87.5162 29.8957 91.004 29.4345 93.4019L29.4412 93.3803C28.982 94.3672 28.6082 95.1697 28.3332 95.7614C28.2179 96.021 28.1232 96.2339 28.0462 96.4073C27.9836 96.5555 27.9542 96.6348 27.9619 96.6385Z" fill="#003047"/>
<path d="M55.198 87.9258C55.2155 87.9274 55.2574 87.6462 55.3174 87.1365C55.3774 86.5794 55.4549 85.8521 55.549 84.975C55.7326 83.1489 55.9683 80.6249 56.2134 77.8349C56.458 75.0445 56.6658 72.5173 56.8023 70.6869C56.8634 69.8072 56.913 69.0778 56.9518 68.5187C56.9807 68.0063 56.989 67.7225 56.9709 67.721C56.9528 67.7199 56.9109 68.0011 56.8509 68.5108C56.7915 69.0678 56.7139 69.7957 56.6198 70.6722C56.4358 72.4984 56.1995 75.0224 55.9549 77.8123C55.7103 80.6012 55.503 83.1279 55.366 84.9577C55.3055 85.8379 55.2553 86.5679 55.2171 87.127C55.1876 87.6394 55.1799 87.9237 55.198 87.9258Z" fill="#003047"/>
<path d="M70.4809 89.3515C70.4809 89.3515 73.8784 86.7318 74.7072 86.5736C75.3421 86.4528 79.1341 86.5169 80.8781 86.5537C81.5487 86.5678 82.1371 87.1033 82.1293 87.7849L82.1175 87.91C81.981 88.6294 81.2886 88.7855 81.2886 88.7855C81.2886 88.7855 82.1924 89.0493 82.2069 90.0499C82.2214 91.051 81.0296 91.2612 81.0296 91.2612C81.0296 91.2612 81.1009 91.3148 81.1997 91.4152C81.8512 92.0762 81.5203 93.2114 80.6232 93.4189L80.086 93.5429C80.086 93.5429 80.8124 93.8504 80.8021 94.5372C80.7824 95.8547 77.8684 96.1069 77.8684 96.1069C77.8684 96.1069 70.6654 97.2657 70.5098 97.2131C70.3542 97.16 70.4809 89.3515 70.4809 89.3515Z" fill="#F8A58D"/>
<path d="M80.2074 84.9967C80.1753 85.4308 80.075 86.3546 79.3486 86.7734L75.3343 86.6137C75.3343 86.6137 78.3233 85.5653 78.7488 85.0471C78.8977 84.8653 79.103 84.6404 79.3217 84.4775C79.7022 84.1942 80.242 84.5185 80.2074 84.9967Z" fill="#F8A58D"/>
<path d="M77.2235 86.5727C77.222 86.6436 78.0425 86.7235 79.0559 86.7041C80.0652 86.6857 80.8837 86.6473 80.8857 86.5727C80.8868 86.5017 80.0662 86.4219 79.0523 86.4408C78.0436 86.4597 77.2251 86.4975 77.2235 86.5727Z" fill="#F68260"/>
<path d="M78.1249 88.8502C78.1177 88.9201 78.8255 89.0472 79.7071 89.0141C80.5892 88.9837 81.2867 88.806 81.2743 88.7361C81.2624 88.662 80.5612 88.7209 79.6983 88.7509C78.8354 88.7834 78.1311 88.775 78.1249 88.8502Z" fill="#F68260"/>
<path d="M76.0818 88.5591C76.0224 88.5964 76.0994 88.8182 76.3259 88.9669C76.5529 89.1167 76.7835 89.0973 76.7922 89.0263C76.8052 88.9533 76.6433 88.8645 76.4675 88.7457C76.2886 88.6306 76.1428 88.5171 76.0818 88.5591Z" fill="#F68260"/>
<path d="M77.683 91.4352C77.6887 91.5078 78.4633 91.5414 79.4131 91.5093C80.3629 91.4778 81.1333 91.3927 81.1338 91.3202C81.1348 91.2471 80.3603 91.214 79.4043 91.246C78.4488 91.2776 77.6779 91.3627 77.683 91.4352Z" fill="#F68260"/>
<path d="M75.3889 90.3449C75.3568 90.3354 75.2943 90.4174 75.2751 90.5782C75.255 90.7348 75.2927 90.9723 75.4484 91.1741C75.6045 91.3754 75.8227 91.4684 75.9773 91.4858C76.1355 91.5042 76.2286 91.4621 76.2275 91.4279C76.2296 91.3565 75.8816 91.3108 75.6521 91.0112C75.4194 90.7143 75.4577 90.3601 75.3889 90.3449Z" fill="#F68260"/>
<path d="M77.0776 93.9657C77.0864 94.0382 77.7849 94.0098 78.638 93.9026C79.4911 93.7954 80.1757 93.6498 80.1669 93.5773C80.1581 93.5053 79.4596 93.5337 78.606 93.6409C77.7533 93.7481 77.0693 93.8937 77.0776 93.9657Z" fill="#F68260"/>
<path d="M74.8378 92.6796C74.8047 92.6749 74.755 92.7642 74.7597 92.9224C74.7628 93.079 74.8331 93.2924 74.9748 93.4768C75.2685 93.8379 75.5984 93.9687 75.6351 93.9198C75.6868 93.8573 75.422 93.6177 75.1795 93.315C74.9329 93.0107 74.9045 92.6917 74.8378 92.6796Z" fill="#F68260"/>
<path d="M24.7258 117.697C23.3076 117.569 21.971 116.714 21.2451 115.469C21.1629 115.327 21.092 115.135 21.1996 115.013C21.272 114.93 21.394 114.922 21.5031 114.92C22.6246 114.909 23.7476 115.105 24.8013 115.495C24.9208 115.54 25.0526 115.598 25.0971 115.72C25.1296 115.808 25.1069 115.905 25.0836 115.996C24.9419 116.549 24.8013 117.101 24.6596 117.654L24.7258 117.697Z" fill="#48C3FE"/>
<path d="M24.726 117.697L24.6598 117.654C24.7891 117.148 24.9184 116.644 25.0471 116.138C25.0595 116.091 25.0714 116.043 25.0838 115.996C25.0988 115.938 25.1133 115.877 25.1133 115.818C25.1133 115.784 25.1091 115.751 25.0972 115.72C25.0528 115.598 24.921 115.54 24.8015 115.495C23.7741 115.115 22.6806 114.919 21.5871 114.919C21.5591 114.919 21.5312 114.919 21.5033 114.92C21.3942 114.922 21.2722 114.93 21.1998 115.013C21.1605 115.058 21.145 115.112 21.145 115.17C21.1455 115.269 21.1931 115.379 21.2453 115.469C21.6832 116.22 22.3435 116.829 23.1092 117.222C23.6133 117.481 24.1635 117.646 24.726 117.697Z" fill="#0198E0"/>
<path d="M58.6178 59.9836C58.6178 59.9836 60.2703 65.6218 59.8153 65.3013C59.3598 64.9812 58.3722 64.091 58.3722 64.091L58.6178 59.9836Z" fill="#E7E8E5"/>
<path d="M58.5232 62.581L59.427 64.7755C59.5139 65.0046 59.5718 65.2411 59.6018 65.485C59.6762 66.0998 59.7625 67.227 59.4027 67.3053C58.9053 67.4136 58.4363 66.8996 58.4363 66.8996L58.5232 62.581Z" fill="#003047"/>
<path d="M30.4983 62.9289C30.4983 62.9289 39.3377 59.4232 44.2326 62.519C49.1269 65.6143 50.0183 70.5535 52.9334 70.5535C58.6178 70.5535 58.4358 66.4766 58.4358 66.4766L59.6441 66.8487C59.6674 67.6827 60.9616 73.6719 54.9711 74.4139C48.9806 75.1565 46.4631 66.8566 41.074 66.8487C35.6853 66.8408 31.594 69.811 31.594 69.811L27.7223 67.3222L30.4983 62.9289Z" fill="#003047"/>
<path d="M53.1797 74.3124C53.1797 74.3124 50.9755 73.1641 49.7698 70.3358C48.397 67.116 45.4483 63.4395 42.9877 62.5162C40.5261 61.5924 34.8308 60.9476 30.8977 63.5531L28.3786 67.012L31.6489 69.1681C31.6489 69.1681 34.2342 67.7246 37.4119 66.8228C41.4774 65.6693 43.9479 66.972 46.3113 69.2454C46.4586 69.3868 46.5931 69.5265 46.711 69.6621C47.3071 70.3505 48.956 71.9444 50.4523 73.0291C51.6084 73.8673 52.6533 74.3218 53.1797 74.3124Z" fill="#33535F"/>
<path d="M236.209 25.4008C241.452 26.2217 245.295 21.7459 246.521 17.7604C247.653 14.0819 248.191 10.2546 249.78 6.75518C252.001 1.86531 257.886 -0.394897 263.166 0.0575676C268.448 0.50898 273.769 3.19906 278.441 5.74096L277.153 35.1785C277.153 35.1785 266.978 24.1664 262.088 23.9657C253.931 23.6309 254.376 37.2595 246.454 39.2717C246.454 39.2717 235.349 42.3317 227.841 32.4752C223.076 26.2196 222.654 18.6202 222.654 18.6202C222.654 18.6202 226.304 23.85 236.209 25.4008Z" fill="#48C3FE"/>
<path d="M278.656 0.85434C278.585 0.851181 277.158 32.1112 275.47 70.6658C273.781 109.235 272.471 140.492 272.542 140.496C272.614 140.499 274.04 109.246 275.729 70.6778C277.417 32.1227 278.728 0.857498 278.656 0.85434Z" fill="#003047"/>
<path d="M243.524 34.0645C244.067 34.0645 244.545 33.9121 244.985 33.4233C245.598 32.7412 246.415 31.9204 246.881 31.1142C249.274 26.969 250.458 21.0407 250.652 16.3511V15.722C249.929 18.4768 248.307 22.1548 246.797 24.558C245.286 26.9611 242.996 28.9849 240.25 29.5661C239.753 29.6717 239.239 29.7316 238.78 29.9544C238.323 30.1767 237.92 30.6097 237.906 31.1253C237.884 31.8967 238.669 32.4007 239.349 32.7417C240.318 33.2268 241.302 33.7171 242.363 33.9189C242.783 33.9988 243.168 34.0645 243.524 34.0645Z" fill="#15B3FE"/>
<path d="M243.562 34.6262C243.567 34.6336 243.648 34.5868 243.798 34.4896C243.947 34.3918 244.16 34.2368 244.424 34.0219C244.945 33.5878 245.657 32.891 246.358 31.8867C247.064 30.8877 247.74 29.5808 248.294 28.0594C248.852 26.5381 249.31 24.8181 249.727 23.0009C250.562 19.3612 250.93 15.989 251.064 13.5485C251.131 12.3278 251.142 11.3382 251.141 10.6551C251.134 10.3376 251.128 10.0775 251.123 9.86784C251.116 9.68811 251.109 9.59405 251.1 9.59405C251.09 9.59405 251.081 9.68811 251.071 9.86784C251.063 10.077 251.053 10.3366 251.04 10.6529C251.01 11.3351 250.97 12.3209 250.88 13.5364C250.701 15.9659 250.305 19.3186 249.475 22.942C249.058 24.7508 248.61 26.4661 248.07 27.9753C247.534 29.4862 246.884 30.7816 246.207 31.78C245.536 32.7843 244.854 33.49 244.358 33.9441C243.857 34.3939 243.549 34.6073 243.562 34.6262Z" fill="#003047"/>
<path d="M310.271 146.712L241.001 158.238V146.712H310.271Z" fill="#DADBD8"/>
<path d="M229.565 172.747L160.296 184.271V172.747H229.565Z" fill="#DADBD8"/>
<path d="M149.418 197.654L80.149 209.18V197.654H149.418Z" fill="#DADBD8"/>
<path d="M69.376 217.474L0.107063 229V217.474H69.376Z" fill="#DADBD8"/>
<path d="M310.271 146.713H241.001V138.08H310.271V146.713Z" fill="#48C3FE"/>
<path d="M262.616 146.713H241V138.08H262.616V146.713Z" fill="#15B3FE"/>
<path d="M229.565 172.75H160.296V164.117H229.565V172.75Z" fill="#48C3FE"/>
<path d="M181.912 172.75H160.296V164.117H181.912V172.75Z" fill="#15B3FE"/>
<path d="M149.418 197.654H80.149V189.022H149.418V197.654Z" fill="#48C3FE"/>
<path d="M101.765 197.654H80.1492V189.022H101.765V197.654Z" fill="#15B3FE"/>
<path d="M69.2705 217.473H0.00109863V208.84H69.2705V217.473Z" fill="#48C3FE"/>
<path d="M0.000663757 217.473H21.6162V208.84H0.000663757V217.473Z" fill="#15B3FE"/>
<path d="M42.6885 177.419C42.6885 178.476 41.8452 179.334 40.8049 179.334C39.7641 179.334 38.9208 178.476 38.9208 177.419C38.9208 176.362 39.7641 175.504 40.8049 175.504C41.8452 175.504 42.6885 176.362 42.6885 177.419Z" fill="#E7E8E5"/>
</svg>
