<svg width="14" height="14" viewBox="0 0 14 14" fill="none" xmlns="http://www.w3.org/2000/svg">
<rect width="14" height="14" fill="white" fill-opacity="0.01"/>
<g clip-path="url(#clip0_2519_480848)">
<path d="M12.9303 0.074375C12.99 0.114308 13.0389 0.168323 13.0728 0.231653C13.1067 0.294982 13.1244 0.365679 13.1245 0.4375V7C13.1245 7.08737 13.0983 7.17274 13.0493 7.2451C13.0004 7.31746 12.9309 7.3735 12.8498 7.406L12.687 7L12.8498 7.406L12.8471 7.40688L12.8419 7.4095L12.8218 7.41738C12.7067 7.4631 12.5909 7.50685 12.4744 7.54862C12.2434 7.63175 11.9223 7.74375 11.5583 7.85488C10.8443 8.07538 9.91414 8.3125 9.18701 8.3125C8.44589 8.3125 7.83251 8.0675 7.29876 7.85313L7.27426 7.84438C6.71951 7.62125 6.24701 7.4375 5.68701 7.4375C5.07451 7.4375 4.25376 7.63875 3.55464 7.85488C3.24161 7.95243 2.93144 8.05893 2.62451 8.17425V13.5625C2.62451 13.6785 2.57842 13.7898 2.49637 13.8719C2.41432 13.9539 2.30304 14 2.18701 14C2.07098 14 1.9597 13.9539 1.87765 13.8719C1.79561 13.7898 1.74951 13.6785 1.74951 13.5625V0.4375C1.74951 0.321468 1.79561 0.210188 1.87765 0.128141C1.9597 0.0460936 2.07098 0 2.18701 0C2.30304 0 2.41432 0.0460936 2.49637 0.128141C2.57842 0.210188 2.62451 0.321468 2.62451 0.4375V0.68425C2.82226 0.615125 3.05851 0.5355 3.31576 0.45675C4.02976 0.238 4.96076 0 5.68701 0C6.42201 0 7.02051 0.242375 7.54289 0.454125L7.58051 0.469875C8.12476 0.6895 8.59901 0.875 9.18701 0.875C9.79951 0.875 10.6203 0.67375 11.3194 0.457625C11.7178 0.333211 12.1115 0.194285 12.4998 0.041125L12.5164 0.035L12.5199 0.03325H12.5208" fill="#0198E0"/>
</g>
<defs>
<clipPath id="clip0_2519_480848">
<rect width="14" height="14" fill="white"/>
</clipPath>
</defs>
</svg>
