<svg width="14" height="14" viewBox="0 0 14 14" fill="none" xmlns="http://www.w3.org/2000/svg">
<rect width="14" height="14" fill="white" fill-opacity="0.01"/>
<path d="M5.83302 11.0833V8.16659H8.16636V11.0833C8.16636 11.4041 8.42886 11.6666 8.74969 11.6666H10.4997C10.8205 11.6666 11.083 11.4041 11.083 11.0833V6.99992H12.0747C12.343 6.99992 12.4714 6.66742 12.2672 6.49242L7.39052 2.09992C7.16886 1.90159 6.83052 1.90159 6.60886 2.09992L1.73219 6.49242C1.53386 6.66742 1.65636 6.99992 1.92469 6.99992H2.91636V11.0833C2.91636 11.4041 3.17886 11.6666 3.49969 11.6666H5.24969C5.57052 11.6666 5.83302 11.4041 5.83302 11.0833Z" fill="#0198E0"/>
</svg>
