<svg width="14" height="14" viewBox="0 0 14 14" fill="none" xmlns="http://www.w3.org/2000/svg">
<rect width="14" height="14" fill="white" fill-opacity="0.01"/>
<g clip-path="url(#clip0_2519_480847)">
<path d="M6.99951 1.55944C6.13764 0.818316 4.88814 0.708066 3.75064 0.821816C2.42589 0.955691 1.08889 1.40982 0.255887 1.78869C0.179455 1.82345 0.11464 1.87947 0.0691801 1.95007C0.0237201 2.02066 -0.000465031 2.10285 -0.000488281 2.18682V11.8118C-0.000468015 11.885 0.0179192 11.957 0.0529892 12.0213C0.0880591 12.0856 0.138691 12.14 0.200246 12.1796C0.261802 12.2192 0.332313 12.2427 0.405322 12.248C0.478331 12.2533 0.551503 12.2402 0.618137 12.2099C1.38989 11.8599 2.63326 11.4391 3.83814 11.3174C5.07101 11.1932 6.10439 11.3936 6.65826 12.0848C6.69926 12.1359 6.7512 12.1772 6.81027 12.2055C6.86933 12.2338 6.934 12.2485 6.99951 12.2485C7.06502 12.2485 7.12969 12.2338 7.18876 12.2055C7.24782 12.1772 7.29977 12.1359 7.34076 12.0848C7.89464 11.3936 8.92801 11.1932 10.16 11.3174C11.3658 11.4391 12.61 11.8599 13.3809 12.2099C13.4475 12.2402 13.5207 12.2533 13.5937 12.248C13.6667 12.2427 13.7372 12.2192 13.7988 12.1796C13.8603 12.14 13.911 12.0856 13.946 12.0213C13.9811 11.957 13.9995 11.885 13.9995 11.8118V2.18682C13.9995 2.10285 13.9753 2.02066 13.9298 1.95007C13.8844 1.87947 13.8196 1.82345 13.7431 1.78869C12.9101 1.40982 11.5731 0.955691 10.2484 0.821816C9.11089 0.707191 7.86139 0.818316 6.99951 1.55944Z" fill="#0198E0"/>
</g>
<defs>
<clipPath id="clip0_2519_480847">
<rect width="14" height="14" fill="white"/>
</clipPath>
</defs>
</svg>
