<svg id="Layer_1" data-name="Layer 1" xmlns="http://www.w3.org/2000/svg" viewBox="0 0 940.36 418.05"><defs><style>.cls-1{fill:#02459a;}.cls-2{fill:#4db3e6;}.cls-3{fill:#213360;}.cls-4{fill:#283965;}.cls-5{fill:#0198e0;}.cls-6{fill:#33a4d7;}.cls-7{fill:#084a9c;}.cls-8{fill:#0499e0;}.cls-9{fill:#5cc7ea;}</style></defs><path class="cls-1" d="M83.53,141.36,2.2,3.34c.36-.94.92-1.35,1.85-.66,1.19.88,2.34,1.81,3.54,2.67,6,4.28,12,8.51,18,12.81Q40,28.47,54.33,38.84c5.85,4.2,11.73,8.38,17.58,12.58l28,20.09q11,7.89,22,15.81,14,10.05,27.93,20.08c6.93,4.95,13.94,9.8,20.86,14.76q20,14.33,39.91,28.69a5.08,5.08,0,0,0,1.86.41h0a2.58,2.58,0,0,0,2.91,2.11h0l1,.95c1.91,1.44,3.78,2.93,5.75,4.29a7.42,7.42,0,0,0,2.17.65c3,.15,5.84-.51,8.74-.77,6.16-.53,12.27-1.39,18.41-2.09,6.3-.71,12.61-1.29,18.91-1.94,6.63-.69,13.28-1.2,19.89-2.12,0,2,.1,4,.11,6,.09,15.4-.45,30.82,1.22,46.18a1.92,1.92,0,0,1-.33.78c-3.87-2.39-7.79-4.69-11.59-7.19-7.34-4.83-14.62-9.76-21.91-14.68-5.11-3.46-10.16-7-15.29-10.46-3-2-6-3.8-9-5.69-.78-1.89-2.29-2.2-4.09-1.91-2.56-.44-5.14-.21-7.78-.72-3.33-.65-6.58-1.82-9.91-2.22q-9.91-1.2-19.72-3.05c-2.55-.49-5.15-.72-7.73-1-3.07-.39-6.16-.66-9.22-1.14-5.6-.89-11.18-1.89-16.77-2.87-3.51-.61-7-1.3-10.52-1.86-4.81-.76-9.64-1.43-14.47-2.13-5.14-.75-10.3-1.43-15.44-2.25s-10.51-1.93-15.8-2.71c-5.48-.82-11-1.33-16.47-2.14C84.76,143.1,84.18,142,83.53,141.36Z"/><path class="cls-2" d="M229.32,165.34c1.8-.29,3.31,0,4.09,1.91l.9,6c-2,.86-1,2.64-1,3.91.41,19.72-.73,39.44.78,59.16.75,9.92.12,19.95.11,29.92-2.15-.62-4.38-1.06-6.45-1.89-6.45-2.6-12.82-5.41-19.26-8q-18.85-7.65-37.76-15.17a66.58,66.58,0,0,0-6.46-1.88l-.33-.74-.4.37.74.36a11.33,11.33,0,0,0,1.47,1.92c7.67,6.38,15.37,12.71,23,19.08,2.65,2.2,5.19,4.53,7.85,6.71,6.94,5.7,14,11.3,20.86,17,5,4.19,9.93,8.56,14.94,12.79.43.36,1.22.3,1.84.43,4-.14,5.89-3.79,9-5.53,4.34-2.48,7.56-6.62,12.35-8.49a9.06,9.06,0,0,1,2.47,1.3q14,14.49,27.93,29.09c4.22,4.43,8.32,9,12.52,13.44,6.36,6.76,12.81,13.44,19.13,20.25,2.67,2.88,5.08,6,7.62,9-1.08-.27-2.35-.26-3.21-.86-6.95-4.82-13.8-9.77-20.72-14.64s-14.25-9.62-21.73-13.92c-7.73-4.46-15.08-9.6-22.68-14.28-2.73-1.68-5.74-2.91-8.62-4.34l-2-1-1-1c-.52-1.25-1.18-2.26-3.72-1.39l3.71,1.4,1,1,2,1c.39.85.57,2,1.22,2.52,3.35,2.88,6.87,5.57,10.25,8.43,4.9,4.13,9.69,8.41,14.62,12.51s10,8,14.92,12c6.73,5.5,13.42,11.06,20.13,16.6a24.73,24.73,0,0,0-2.13,3.77q-9.12,25.68-18.14,51.4a21,21,0,0,1-1.3,2.46l-2.64-1.58c.16-.44.59-1.06.44-1.32-1.1-1.81-2.29-3.56-3.5-5.3-5.53-7.92-11-15.87-16.62-23.75q-13.08-18.44-26.23-36.82c-6.18-8.67-12.37-17.33-18.49-26q-16.07-22.92-32.06-45.89c-6.29-9-12.58-18-19-26.9a75.25,75.25,0,0,0-5.48-6.13l-.35-1.73-.66.33,1,1.39c0,.67.05,1.33.07,2l-2.06,2c-2.45-3.65-2-8-2.94-12a3.66,3.66,0,0,0,.86-.44c10.72-10.37,21.48-20.7,32.13-31.14,8.55-8.38,16.9-17,25.46-25.32,4.35-4.25,9-8.19,13.5-12.26Z"/><path class="cls-3" d="M761.23,187.49c7.21.63,12.63,3.06,16.8,8.06a21.12,21.12,0,0,1,5.35,14.06c-.08,25.33,0,50.66,0,76,0,1.16-.07,2.34,0,3.5.18,2.42.9,3.13,3.38,3.39a29.78,29.78,0,0,0,3,.06c25.33,0,50.67-.12,76,.07,9.48.07,18.12-2.15,25.6-7.86,9-6.89,14.66-15.86,16.29-27.39a40.32,40.32,0,0,0-7.23-30c-6.4-9.06-15.15-15.21-26.06-16.81-25.23-3.68-44.63,11-48.74,33.91-2.25,12.54.71,24.43,9.58,34.27.63.7,1.21,1.45,2,2.41H810.77a57,57,0,0,1-7.48-25.92c-.53-11.64,1.27-22.8,6.82-33.15,9.64-18,24.45-29.65,44.5-33.39,15.33-2.85,30.48-.89,44,7.59,16.81,10.53,27.72,25.21,30.81,45.28,3.22,20.84-3.25,38.57-16.89,54a83.76,83.76,0,0,1-12.88,11.72,39,39,0,0,1-24,8c-31.16-.19-62.32-.26-93.48,0-13,.12-19.61-8.88-20.79-19.52a46.24,46.24,0,0,1-.13-5q0-49.48,0-99Z"/><path class="cls-3" d="M734.58,281.05h-26.7c.94-1.25,1.55-2.18,2.28-3a37.07,37.07,0,0,0,9.44-24c.21-6.69-.16-13.27-3.2-19.41-7-14.23-17.87-23.2-34.14-24.46-7.86-.61-15.52.06-22.66,4-11.17,6.16-19,15-21.61,27.64-2.83,13.53-.47,26,9,36.68,6,6.75,13.23,11.44,22.15,13.31a22.63,22.63,0,0,0,4.41.54q16.25.15,32.49.18c15.15,0,30.31,0,45.94,0,.88,7.63,1.74,15.34,6.76,22.27-1.66.14-2.73.31-3.8.31-28.15,0-56.31-.17-84.47.11-10.16.11-18.74-3.41-26.67-9.15a72.52,72.52,0,0,1-21.71-25c-4.55-8.52-7.52-17.69-7.56-27.44-.14-30-.06-60-.06-90v-2.06c4.08-.8,7.46.37,10.59,2.26,7,4.19,11.36,10.05,11.38,18.54,0,6.49,0,13,0,20.22,9.15-6.6,18.37-11.79,29.07-13.79a68.57,68.57,0,0,1,31.39,1.41c10.71,3,19.6,8.94,27.17,16.75C744.05,227.68,747.32,256.81,734.58,281.05Z"/><path class="cls-4" d="M311.51,315c-1.05-3.31-1.2-17.22-.17-22.33,1.61,0,3.38-.09,5.14-.09H409c2,0,4,0,6-.15,5.85-.36,9.91-4.19,10.42-10a52,52,0,0,0,.12-7.49c-.28-5.74-3.34-9.56-8.61-11.64a32.34,32.34,0,0,0-12.15-2.07c-15.16.05-30.33,0-45.5,0a51.11,51.11,0,0,1-17-2.82,32.07,32.07,0,0,1-20.91-28.8c-.3-6.47-.34-12.91,2-19.17,3.12-8.38,8.81-14.22,16.76-18.08a49.87,49.87,0,0,1,21.62-4.73c25.33-.2,50.67-.1,76-.1a8.07,8.07,0,0,1,1.6.36c.91,8.26-3.12,14-9.37,18.43a21.79,21.79,0,0,1-13.08,3.92c-17.5-.1-35-.14-52.5,0a56.38,56.38,0,0,0-11.82,1.2c-5.81,1.29-9,5.42-9.16,11.39a28.71,28.71,0,0,0,.85,7.84c1.39,5.35,4.58,7.71,10.05,7.75,16,.11,32,0,48,.31,9.44.18,18.85,1.16,27.35,5.9,9.5,5.3,15.7,13.21,17.57,24,.83,4.86,1.49,10,.69,14.83-2.58,15.43-12,25.44-26.74,30.19a36,36,0,0,1-10.74,1.53c-32.33.12-64.67.08-97,.07A15.35,15.35,0,0,1,311.51,315Z"/><path class="cls-5" d="M229.32,165.34l2,1.76c-4.5,4.07-9.15,8-13.5,12.26-8.56,8.35-16.91,16.94-25.46,25.32-10.65,10.44-21.41,20.77-32.13,31.14a3.66,3.66,0,0,1-.86.44q-15.73-12.44-31.47-24.87c-8.81-7-17.63-14-26.37-21-5.4-4.37-10.67-8.9-16-13.39q-16.1-13.62-32.16-27.31c-5.28-4.51-10.48-9.11-15.83-13.78,1.83-1.23,3.36.08,5,.32,1.79.28,3.63.28,5.42.56,7.46,1.16,14.92,2.38,22.37,3.59,3.07.51,6.13,1.12,9.21,1.58,1.34.19,2.89,1.29,4-.56.65.64,1.23,1.74,2,1.85,5.47.81,11,1.32,16.47,2.14,5.29.78,10.53,1.86,15.8,2.71s10.3,1.5,15.44,2.25c4.83.7,9.66,1.37,14.47,2.13,3.52.56,7,1.25,10.52,1.86,5.59,1,11.17,2,16.77,2.87,3.06.48,6.15.75,9.22,1.14,2.58.32,5.18.55,7.73,1q9.81,1.86,19.72,3.05c3.33.4,6.58,1.57,9.91,2.22C224.18,165.13,226.76,164.9,229.32,165.34Z"/><path class="cls-4" d="M440.69,315.16c8-6.65,13.84-13.55,17.25-22.63h4.85q36,0,72-.11c17.08-.05,32.7-14.29,36.51-29.44a53.39,53.39,0,0,0,1.35-12.31c.17-13.15.1-26.32,0-39.48a23.72,23.72,0,0,1,5-15.22c4.36-5.55,10.17-8,17.56-8.44v5.23c0,18.66-.19,37.32,0,56,.25,19.08-6.42,35.16-19.52,48.89a63.38,63.38,0,0,1-16.87,12.85A41,41,0,0,1,540.29,315c-14.15.22-28.31.18-42.47.2C479.17,315.18,460.52,315.16,440.69,315.16Z"/><path class="cls-1" d="M164.39,246.29c0-.66,0-1.32-.07-2h0a75.25,75.25,0,0,1,5.48,6.13c6.4,8.91,12.69,17.9,19,26.9q16,22.94,32.06,45.89c6.12,8.72,12.31,17.38,18.49,26q13.11,18.42,26.23,36.82c5.59,7.88,11.09,15.83,16.62,23.75,1.21,1.74,2.4,3.49,3.5,5.3.15.26-.28.88-.44,1.32-11.56-5.86-23.13-11.69-34.67-17.59-6.12-3.12-12.18-6.36-18.27-9.54a21.23,21.23,0,0,1-1.92-2.85c-6.25-13.43-12.38-26.91-18.69-40.32-5-10.6-10.31-21-15.27-31.66-5.22-11.17-10.12-22.5-15.3-33.7-3.82-8.27-7.86-16.44-11.78-24.66-.42-.87-.6-1.85-1-2.7C167,251,165.69,248.67,164.39,246.29Z"/><path class="cls-5" d="M234.31,173.29l-.9-6c3,1.89,6,3.72,9,5.69,5.13,3.44,10.18,7,15.29,10.46,7.29,4.92,14.57,9.85,21.91,14.68,3.8,2.5,7.72,4.8,11.59,7.19-1.54,3.76-3,7.56-4.65,11.27q-8.55,19.05-17.24,38c-3.76,8.19-7.63,16.32-11.48,24.46a7.09,7.09,0,0,1-1.28,1.48l-1.15-.17a35.9,35.9,0,0,1-1-3.74c-1.06-6.07-1.89-12.18-3.1-18.21-1.48-7.44-3.36-14.8-4.88-22.23-2.1-10.29-4-20.64-6.06-30.94-1.22-6-2.76-11.95-3.91-18C235.5,182.63,235,177.94,234.31,173.29Z"/><path class="cls-2" d="M212.37,151.26a5.08,5.08,0,0,1-1.86-.41q-20-14.31-39.91-28.69c-6.92-5-13.93-9.81-20.86-14.76q-14-10-27.93-20.08-11-7.91-22-15.81L71.91,51.42C66.06,47.22,60.18,43,54.33,38.84Q40,28.5,25.61,18.16c-6-4.3-12-8.53-18-12.81-1.2-.86-2.35-1.79-3.54-2.67C3.12,2,2.56,2.4,2.2,3.34L0,0C4.54.89,8.37,1.54,12.14,2.39c10,2.26,19.93,4.87,30,6.82A25.65,25.65,0,0,1,54.32,15c5.53,4.73,11,9.58,16.49,14.3C76.58,34.21,82.46,39,88.24,43.91,93.52,48.41,98.7,53,104,57.53c6,5.14,12.14,10.17,18.16,15.31,5.4,4.61,10.71,9.34,16.11,14,6.27,5.37,12.61,10.65,18.88,16,5.16,4.39,10.25,8.87,15.4,13.27,6.15,5.25,12.36,10.43,18.52,15.67,2.9,2.47,5.73,5,8.63,7.48,3.77,3.2,7.61,6.31,11.34,9.56A8.47,8.47,0,0,1,212.37,151.26Z"/><path class="cls-6" d="M164.39,246.29c1.3,2.38,2.64,4.75,3.9,7.16.44.85.62,1.83,1,2.7,3.92,8.22,8,16.39,11.78,24.66,5.18,11.2,10.08,22.53,15.3,33.7,5,10.62,10.27,21.06,15.27,31.66,6.31,13.41,12.44,26.89,18.69,40.32a21.23,21.23,0,0,0,1.92,2.85l-26.3,8c-.89-2-1.78-4-2.66-6a27.79,27.79,0,0,0-.48-3.88c-1.79-6.87-3.67-13.72-5.51-20.59-3.68-13.73-7.23-27.51-11.06-41.2-3.93-14-8.09-27.94-12.22-41.88q-4.8-16.29-9.82-32.5c-.25-.8-1.3-1.36-2-2a1.3,1.3,0,0,1,.06-.95Z"/><path class="cls-4" d="M467.48,187.52c14.58,1.32,22.53,10,22.55,23.82,0,13,.2,25.95,0,38.92-.14,11.46,3.22,21.45,11.27,29.74a7.72,7.72,0,0,1,.63,1.05h-27c-3.1-6.68-6-13.49-6.57-21-.46-6.1-.79-12.23-.83-18.35-.11-16.3,0-32.6,0-48.9Z"/><path class="cls-1" d="M234.31,173.29c.68,4.65,1.19,9.34,2.08,14,1.15,6,2.69,12,3.91,18,2.08,10.3,4,20.65,6.06,30.94,1.52,7.43,3.4,14.79,4.88,22.23,1.21,6,2,12.14,3.1,18.21a35.9,35.9,0,0,0,1,3.74l.35,1.23-.12,1.68c-4.79,1.87-8,6-12.35,8.49-3.06,1.74-4.93,5.39-9,5.53q0-15.5-.08-31c0-10,.64-20-.11-29.92-1.51-19.72-.37-39.44-.78-59.16C233.33,175.93,232.27,174.15,234.31,173.29Z"/><path class="cls-2" d="M291.52,204.49c-1.67-15.36-1.13-30.78-1.22-46.18,0-2-.07-4-.11-6l.15,0a35.72,35.72,0,0,0,4.28-.72c3.54-1,7.06-2.14,10.57-3.29,6.09-2,12.16-4,18.25-6.05a2.56,2.56,0,0,1,.87.09c1,5.16,3.94,9.45,6.08,14.11-2.35,3.12-4.65,6.28-7.07,9.35q-9,11.43-18.1,22.77c-4.21,5.25-8.49,10.44-12.77,15.64C292.28,204.4,291.84,204.39,291.52,204.49Z"/><path class="cls-7" d="M162.27,249.25c.67.67,1.72,1.23,2,2q5,16.21,9.82,32.5c4.13,13.94,8.29,27.88,12.22,41.88,3.83,13.69,7.38,27.47,11.06,41.2,1.84,6.87,3.72,13.72,5.51,20.59a27.79,27.79,0,0,1,.48,3.88c-1.7-3.15-3.47-6.27-5.08-9.47-6-11.91-11.84-23.92-18-35.75a39.67,39.67,0,0,1-3.71-11.68q-4-22.59-7.94-45.2c-1.83-10.7-3.56-21.43-5.3-32.16C162.86,254.48,162.6,251.86,162.27,249.25Z"/><path class="cls-4" d="M636.19,314.91H572.58c1-.93,1.9-1.76,2.81-2.54,5.82-5,11.53-10.12,15.72-16.57,1.73-2.66,3.62-3.4,6.52-3.31,5.32.16,10.65.13,16,0a4,4,0,0,1,3.82,1.77c4.87,7.67,11.46,13.72,18.35,19.48C636,313.92,636,314.33,636.19,314.91Z"/><path class="cls-8" d="M290.19,152.33c-6.61.92-13.26,1.43-19.89,2.12-6.3.65-12.61,1.23-18.91,1.94-6.14.7-12.25,1.56-18.41,2.09-2.9.26-5.78.92-8.74.77,3.91-2.67,7.77-5.4,11.73-8,12.11-7.9,24.63-15.12,37.39-21.92,2.22-.14,3,1.51,4,3.06,4.29,6.66,8.65,13.27,13,19.89Z"/><path class="cls-9" d="M330.39,156.43c-2.14-4.66-5.12-9-6.08-14.11,19.16,0,38.35-.66,57.46.29,17.11.85,34.19.25,51.28.77a2.43,2.43,0,0,1,2,.83c-6.42.71-12.85,1.33-19.25,2.14-6.8.86-13.58,1.93-20.38,2.85-3.08.42-6.18.74-9.28,1-7.35.72-14.72,1.33-22.06,2.13-8.3.9-16.58,2-24.87,3Z"/><path class="cls-8" d="M248.33,308.29c2.88,1.43,5.89,2.66,8.62,4.34,7.6,4.68,14.95,9.82,22.68,14.28,7.48,4.3,14.68,9,21.73,13.92s13.77,9.82,20.72,14.64c.86.6,2.13.59,3.21.86h0l1,1,0,0,1,1,2.78,2.18-20.6-.09c-6.71-5.54-13.4-11.1-20.13-16.6-4.95-4-10-7.94-14.92-12s-9.72-8.38-14.62-12.51c-3.38-2.86-6.9-5.55-10.25-8.43-.65-.56-.83-1.67-1.22-2.52Z"/><path class="cls-9" d="M290.34,152.29c-4.34-6.62-8.7-13.23-13-19.89-1-1.55-1.77-3.2-4-3.06.76-1.8,2.27-1.1,3.38-.78q17.91,5.1,35.77,10.35c3.65,1.07,7.6,1.17,10.93,3.32-6.09,2-12.16,4.06-18.25,6.05-3.51,1.15-7,2.27-10.57,3.29A35.72,35.72,0,0,1,290.34,152.29Z"/><path class="cls-4" d="M929.17,292.64h11.08c.19,7.44,0,14.79.11,22.34H908.13c4-3.84,7.73-7.2,11.17-10.86S925.76,296.64,929.17,292.64Z"/><path class="cls-3" d="M761.46,180V161.54h21.61V180Z"/><path class="cls-2" d="M215.27,153.36a2.58,2.58,0,0,1-2.91-2.11A2.58,2.58,0,0,1,215.27,153.36Z"/><path class="cls-2" d="M216.32,154.31l-1-.95Z"/><path class="cls-2" d="M255.74,281.57l-.35-1.23,1.15.17Z"/><path class="cls-2" d="M326.26,357.34l-1-1Z"/><path class="cls-2" d="M327.26,358.33l-1-1Z"/><path class="cls-5" d="M234.24,266.28q0,15.5.08,31c-.62-.13-1.41-.07-1.84-.43-5-4.23-9.9-8.6-14.94-12.79-6.9-5.74-13.92-11.34-20.86-17-2.66-2.18-5.2-4.51-7.85-6.71-7.67-6.37-15.37-12.7-23-19.08a11.33,11.33,0,0,1-1.47-1.92h0a66.58,66.58,0,0,1,6.46,1.88q18.91,7.5,37.76,15.17c6.44,2.62,12.81,5.43,19.26,8C229.86,265.22,232.09,265.66,234.24,266.28Z"/><path class="cls-8" d="M245.31,306.31l-3.71-1.4c2.54-.87,3.2.14,3.72,1.39Z"/><path class="cls-1" d="M164.32,244.3l-1-1.39.66-.33.35,1.73Z"/><path class="cls-8" d="M246.32,307.3l2,1,0,0-2-1Z"/><path class="cls-8" d="M245.32,306.3l1,1h0l-1-1Z"/><path class="cls-5" d="M164.32,239.3l-.74-.36.4-.37.33.74Z"/></svg>