<svg width="51" height="24" viewBox="0 0 51 24" fill="none" xmlns="http://www.w3.org/2000/svg">
<path d="M11.3751 23.375C9.33955 23.3746 7.3414 22.828 5.58911 21.7921C3.83681 20.7563 2.39457 19.2693 1.41284 17.4861C0.431105 15.7029 -0.0541507 13.689 0.00769378 11.6544C0.0695382 9.6198 0.676216 7.63906 1.76444 5.91882C2.85266 4.19858 4.38256 2.80187 6.19453 1.87439C8.0065 0.946911 10.0342 0.522648 12.066 0.645861C14.0978 0.769073 16.0593 1.43525 17.7459 2.57488C19.4326 3.71452 20.7825 5.28587 21.6548 7.125H45.5001L50.3751 12L45.5001 16.875L42.2501 13.625L39.0001 16.875L35.7501 13.625L32.5001 16.875L29.2501 13.625L26.0001 16.875H21.6548C20.7321 18.8202 19.2763 20.4636 17.4566 21.6143C15.6369 22.7649 13.5281 23.3754 11.3751 23.375ZM8.1251 15.25C8.98705 15.25 9.8137 14.9076 10.4232 14.2981C11.0327 13.6886 11.3751 12.862 11.3751 12C11.3751 11.138 11.0327 10.3114 10.4232 9.70191C9.8137 9.09241 8.98705 8.75 8.1251 8.75C7.26314 8.75 6.43649 9.09241 5.827 9.70191C5.2175 10.3114 4.87509 11.138 4.87509 12C4.87509 12.862 5.2175 13.6886 5.827 14.2981C6.43649 14.9076 7.26314 15.25 8.1251 15.25Z" fill="#0198E0"/>
</svg>
